<svg xmlns="http://www.w3.org/2000/svg" xmlns:xlink="http://www.w3.org/1999/xlink" viewBox="0 0 967.69 598.25"><defs><style>.cls-1{mask:url(#mask);filter:url(#luminosity-noclip-5);}.cls-17,.cls-2,.cls-4,.cls-6,.cls-8{mix-blend-mode:multiply;}.cls-2{fill:url(#linear-gradient);}.cls-3{mask:url(#mask-2);filter:url(#luminosity-noclip-6);}.cls-4{fill:url(#linear-gradient-2);}.cls-5{mask:url(#mask-3);filter:url(#luminosity-noclip-7);}.cls-6{fill:url(#linear-gradient-3);}.cls-7{mask:url(#mask-4);filter:url(#luminosity-noclip-8);}.cls-8{fill:url(#linear-gradient-4);}.cls-9{isolation:isolate;}.cls-10{fill:url(#linear-gradient-5);}.cls-11{fill:url(#linear-gradient-6);}.cls-12{mask:url(#mask-5);}.cls-13{opacity:0.7;fill:url(#linear-gradient-7);}.cls-14{fill:#333;}.cls-15{fill:url(#linear-gradient-8);}.cls-16{mask:url(#mask-6);}.cls-17{fill:url(#linear-gradient-9);}.cls-18{fill:#777;}.cls-19{fill:url(#linear-gradient-10);}.cls-20{mask:url(#mask-7);}.cls-21,.cls-35{opacity:0.2;}.cls-21{fill:url(#linear-gradient-11);}.cls-22{fill:url(#linear-gradient-12);}.cls-23{fill:url(#linear-gradient-13);}.cls-24{fill:url(#linear-gradient-14);}.cls-25{fill:url(#linear-gradient-15);}.cls-26{fill:url(#linear-gradient-16);}.cls-27{fill:url(#linear-gradient-17);}.cls-28{fill:url(#linear-gradient-18);}.cls-29{fill:#212121;}.cls-30{fill:url(#linear-gradient-19);}.cls-31{fill:url(#linear-gradient-20);}.cls-32{fill:#131313;}.cls-33{fill:url(#linear-gradient-21);}.cls-34{mask:url(#mask-8);}.cls-35{fill:url(#linear-gradient-22);}.cls-36{filter:url(#luminosity-noclip-4);}.cls-37{filter:url(#luminosity-noclip-3);}.cls-38{filter:url(#luminosity-noclip-2);}.cls-39{filter:url(#luminosity-noclip);}</style><filter id="luminosity-noclip" x="527.35" y="-8570.89" width="203.98" height="32766" filterUnits="userSpaceOnUse" color-interpolation-filters="sRGB"><feFlood flood-color="#fff" result="bg"/><feBlend in="SourceGraphic" in2="bg"/></filter><mask id="mask" x="527.35" y="-8570.89" width="203.98" height="32766" maskUnits="userSpaceOnUse"><g class="cls-39"/></mask><linearGradient id="linear-gradient" x1="629.34" y1="561.58" x2="629.34" y2="555.45" gradientUnits="userSpaceOnUse"><stop offset="0" stop-color="#fff"/><stop offset="0.01" stop-color="#f6f6f6"/><stop offset="0.05" stop-color="#c8c8c8"/><stop offset="0.09" stop-color="#9d9d9d"/><stop offset="0.14" stop-color="#777"/><stop offset="0.2" stop-color="#575757"/><stop offset="0.25" stop-color="#3b3b3b"/><stop offset="0.32" stop-color="#252525"/><stop offset="0.4" stop-color="#141414"/><stop offset="0.49" stop-color="#090909"/><stop offset="0.63" stop-color="#020202"/><stop offset="1"/></linearGradient><filter id="luminosity-noclip-2" x="295.1" y="-8570.89" width="668.48" height="32766" filterUnits="userSpaceOnUse" color-interpolation-filters="sRGB"><feFlood flood-color="#fff" result="bg"/><feBlend in="SourceGraphic" in2="bg"/></filter><mask id="mask-2" x="295.1" y="-8570.89" width="668.48" height="32766" maskUnits="userSpaceOnUse"><g class="cls-38"/></mask><linearGradient id="linear-gradient-2" x1="629.33" y1="467.03" x2="629.33" y2="461.51" gradientUnits="userSpaceOnUse"><stop offset="0" stop-color="#1a1a1a"/><stop offset="0.55" stop-color="#0e0e0e"/><stop offset="1"/></linearGradient><filter id="luminosity-noclip-3" x="425.29" y="-8570.89" width="542.4" height="32766" filterUnits="userSpaceOnUse" color-interpolation-filters="sRGB"><feFlood flood-color="#fff" result="bg"/><feBlend in="SourceGraphic" in2="bg"/></filter><mask id="mask-3" x="425.29" y="-8570.89" width="542.4" height="32766" maskUnits="userSpaceOnUse"><g class="cls-37"/></mask><linearGradient id="linear-gradient-3" x1="696.49" y1="404.6" x2="696.49" gradientUnits="userSpaceOnUse"><stop offset="0.2"/><stop offset="0.5" stop-color="#020202"/><stop offset="0.6" stop-color="#090909"/><stop offset="0.68" stop-color="#141414"/><stop offset="0.74" stop-color="#252525"/><stop offset="0.8" stop-color="#3b3b3b"/><stop offset="0.84" stop-color="#575757"/><stop offset="0.89" stop-color="#777"/><stop offset="0.93" stop-color="#9d9d9d"/><stop offset="0.96" stop-color="#c8c8c8"/><stop offset="0.99" stop-color="#f6f6f6"/><stop offset="1" stop-color="#fff"/></linearGradient><filter id="luminosity-noclip-4" x="138.81" y="-8570.89" width="375.65" height="32766" filterUnits="userSpaceOnUse" color-interpolation-filters="sRGB"><feFlood flood-color="#fff" result="bg"/><feBlend in="SourceGraphic" in2="bg"/></filter><mask id="mask-4" x="138.81" y="-8570.89" width="375.65" height="32766" maskUnits="userSpaceOnUse"><g class="cls-36"/></mask><linearGradient id="linear-gradient-4" x1="326.64" y1="585.03" x2="326.64" y2="273.38" xlink:href="#linear-gradient-3"/><linearGradient id="linear-gradient-5" x1="527.35" y1="558.51" x2="731.32" y2="558.51" gradientUnits="userSpaceOnUse"><stop offset="0" stop-color="#343434"/><stop offset="0.08" stop-color="#3e3e3e"/><stop offset="0.16" stop-color="#4f4f4f"/><stop offset="0.27" stop-color="#696969"/><stop offset="0.39" stop-color="gray"/><stop offset="0.65" stop-color="#7c7e7f"/><stop offset="0.75" stop-color="#6b6c6d"/><stop offset="0.96" stop-color="#3e3e3e"/><stop offset="1" stop-color="#343434"/></linearGradient><linearGradient id="linear-gradient-6" x1="629.34" y1="559.03" x2="629.34" y2="461.44" gradientUnits="userSpaceOnUse"><stop offset="0" stop-color="#535353"/><stop offset="0.16" stop-color="#585858"/><stop offset="0.18" stop-color="#4e4e4e"/><stop offset="0.24" stop-color="#373737"/><stop offset="0.28" stop-color="#414141"/><stop offset="0.34" stop-color="#5c5c5c"/><stop offset="0.39" stop-color="#777"/><stop offset="0.65" stop-color="#696a6c"/><stop offset="0.76" stop-color="#58595a"/><stop offset="0.99" stop-color="#2b2b2b"/><stop offset="1" stop-color="#2a2a2a"/></linearGradient><filter id="luminosity-noclip-5" x="527.35" y="555.45" width="203.98" height="6.12" filterUnits="userSpaceOnUse" color-interpolation-filters="sRGB"><feFlood flood-color="#fff" result="bg"/><feBlend in="SourceGraphic" in2="bg"/></filter><mask id="mask-5" x="527.35" y="555.45" width="203.98" height="6.12" maskUnits="userSpaceOnUse"><g class="cls-1"><path class="cls-2" d="M528.55,555.45h-1.2v2.68a3.51,3.51,0,0,0,3.56,3.45H727.76a3.51,3.51,0,0,0,3.56-3.45v-2.68Z"/></g></mask><linearGradient id="linear-gradient-7" x1="629.34" y1="561.58" x2="629.34" y2="555.45" gradientUnits="userSpaceOnUse"><stop offset="0" stop-color="#343434"/><stop offset="0.04" stop-color="#393939"/><stop offset="0.19" stop-color="#444"/><stop offset="0.41" stop-color="#4b4b4b"/><stop offset="1" stop-color="#4d4d4d"/></linearGradient><linearGradient id="linear-gradient-8" x1="290.98" y1="435.82" x2="967.69" y2="435.82" gradientUnits="userSpaceOnUse"><stop offset="0" stop-color="#4b4b4d"/><stop offset="1" stop-color="#707070"/></linearGradient><filter id="luminosity-noclip-6" x="295.1" y="461.51" width="668.48" height="5.51" filterUnits="userSpaceOnUse" color-interpolation-filters="sRGB"><feFlood flood-color="#fff" result="bg"/><feBlend in="SourceGraphic" in2="bg"/></filter><mask id="mask-6" x="295.1" y="461.51" width="668.48" height="5.51" maskUnits="userSpaceOnUse"><g class="cls-3"><path class="cls-4" d="M963.57,461.51A16.26,16.26,0,0,1,951.33,467h-644a16.26,16.26,0,0,1-12.24-5.52Z"/></g></mask><linearGradient id="linear-gradient-9" x1="629.33" y1="467.03" x2="629.33" y2="461.51" gradientUnits="userSpaceOnUse"><stop offset="0"/><stop offset="0.09" stop-color="#0c0c0c"/><stop offset="0.25" stop-color="#2d2d2d"/><stop offset="0.47" stop-color="#636363"/><stop offset="0.73" stop-color="#adadad"/><stop offset="1" stop-color="#fff"/></linearGradient><linearGradient id="linear-gradient-10" x1="380.74" y1="-31.12" x2="877.93" y2="466.07" gradientUnits="userSpaceOnUse"><stop offset="0" stop-color="#f2f3f4"/><stop offset="0.36" stop-color="#edeeef"/><stop offset="0.78" stop-color="#dfe0e0"/><stop offset="1" stop-color="#d5d6d6"/></linearGradient><filter id="luminosity-noclip-7" x="425.29" y="0" width="542.4" height="404.6" filterUnits="userSpaceOnUse" color-interpolation-filters="sRGB"><feFlood flood-color="#fff" result="bg"/><feBlend in="SourceGraphic" in2="bg"/></filter><mask id="mask-7" x="425.29" y="0" width="542.4" height="404.6" maskUnits="userSpaceOnUse"><g class="cls-5"><path class="cls-6" d="M967.69,16.36V404.6H425.29L829.89,0H951.33A16.37,16.37,0,0,1,967.69,16.36Z"/></g></mask><linearGradient id="linear-gradient-11" x1="696.49" y1="404.6" x2="696.49" gradientUnits="userSpaceOnUse"><stop offset="0.2" stop-color="#fff"/><stop offset="0.89" stop-color="#fff"/><stop offset="1" stop-color="#fff"/></linearGradient><linearGradient id="linear-gradient-12" x1="283.03" y1="598.25" x2="283.03" y2="588.88" gradientUnits="userSpaceOnUse"><stop offset="0" stop-color="#575554"/><stop offset="0.46" stop-color="#575554"/><stop offset="1" stop-color="#131313"/></linearGradient><linearGradient id="linear-gradient-13" x1="-5342.04" y1="587.71" x2="-5106.42" y2="587.71" gradientTransform="matrix(-1, 0, 0, 1, -5106.42, 0)" gradientUnits="userSpaceOnUse"><stop offset="0" stop-color="#767676"/><stop offset="0" stop-color="#6e6e6e"/><stop offset="0" stop-color="#585858"/><stop offset="0.01" stop-color="#4a4a4a"/><stop offset="0.01" stop-color="#454545"/><stop offset="0.01" stop-color="#484848"/><stop offset="0.02" stop-color="#525252"/><stop offset="0.02" stop-color="#5d5d5d"/><stop offset="0.03" stop-color="#7c7c7c"/><stop offset="0.4" stop-color="#838383"/><stop offset="0.41" stop-color="#838383"/><stop offset="0.94" stop-color="#6a6a6a"/><stop offset="0.96" stop-color="#484848"/><stop offset="0.97" stop-color="#383838"/><stop offset="0.98" stop-color="#3d3d3d"/><stop offset="0.99" stop-color="#4b4b4b"/><stop offset="0.99" stop-color="#636363"/><stop offset="1" stop-color="#7c7c7c"/></linearGradient><linearGradient id="linear-gradient-14" x1="330.41" y1="587.71" x2="566.02" y2="587.71" gradientUnits="userSpaceOnUse"><stop offset="0" stop-color="#505050"/><stop offset="0" stop-color="#484848"/><stop offset="0" stop-color="#323232"/><stop offset="0.01" stop-color="#242424"/><stop offset="0.01" stop-color="#1f1f1f"/><stop offset="0.01" stop-color="#222"/><stop offset="0.02" stop-color="#2c2c2c"/><stop offset="0.02" stop-color="#373737"/><stop offset="0.03" stop-color="#565656"/><stop offset="0.4" stop-color="#5e5e5e"/><stop offset="0.41" stop-color="#5e5e5e"/><stop offset="0.94" stop-color="#444"/><stop offset="0.96" stop-color="#222"/><stop offset="0.97" stop-color="#121212"/><stop offset="0.98" stop-color="#171717"/><stop offset="0.99" stop-color="#252525"/><stop offset="0.99" stop-color="#3d3d3d"/><stop offset="1" stop-color="#565656"/></linearGradient><linearGradient id="linear-gradient-15" x1="235.62" y1="587.84" x2="330.41" y2="587.84" gradientUnits="userSpaceOnUse"><stop offset="0" stop-color="#565656"/><stop offset="0.06" stop-color="#444"/><stop offset="0.51" stop-color="#565656"/><stop offset="0.94" stop-color="#444"/><stop offset="1" stop-color="#565656"/></linearGradient><linearGradient id="linear-gradient-16" x1="-5342.04" y1="587.22" x2="-5106.42" y2="587.22" gradientTransform="matrix(-1, 0, 0, 1, -5106.42, 0)" gradientUnits="userSpaceOnUse"><stop offset="0" stop-color="#a7a7a7"/><stop offset="0" stop-color="#8e8e8e"/><stop offset="0" stop-color="#6f6f6f"/><stop offset="0.01" stop-color="#585858"/><stop offset="0.01" stop-color="#4a4a4a"/><stop offset="0.01" stop-color="#454545"/><stop offset="0.01" stop-color="#484848"/><stop offset="0.01" stop-color="#525252"/><stop offset="0.02" stop-color="#636363"/><stop offset="0.02" stop-color="#757575"/><stop offset="0.03" stop-color="#6b6968"/><stop offset="0.4" stop-color="#6b6968"/><stop offset="0.41" stop-color="#6b6968"/><stop offset="0.94" stop-color="#8d8d8d"/><stop offset="0.95" stop-color="#636363"/><stop offset="0.97" stop-color="#3b3b3b"/><stop offset="0.97" stop-color="#2b2b2b"/><stop offset="0.98" stop-color="#303030"/><stop offset="0.99" stop-color="#3e3e3e"/><stop offset="0.99" stop-color="#565554"/><stop offset="1" stop-color="#6b6968"/></linearGradient><linearGradient id="linear-gradient-17" x1="283.04" y1="584.28" x2="283.04" y2="275.4" gradientUnits="userSpaceOnUse"><stop offset="0" stop-color="#504e4e"/><stop offset="0.09" stop-color="#585656"/><stop offset="0.24" stop-color="#6e6b6b"/><stop offset="0.42" stop-color="#918e8e"/><stop offset="0.45" stop-color="#979494"/><stop offset="1" stop-color="#7b7878"/></linearGradient><linearGradient id="linear-gradient-18" x1="283.03" y1="289.5" x2="283.03" y2="273.38" gradientUnits="userSpaceOnUse"><stop offset="0" stop-color="#1a1a1a"/><stop offset="0.28" stop-color="#1d1d1d"/><stop offset="0.45" stop-color="#252525"/><stop offset="0.59" stop-color="#333"/><stop offset="0.71" stop-color="#474747"/><stop offset="0.82" stop-color="#626262"/><stop offset="0.92" stop-color="#818181"/><stop offset="1" stop-color="#9f9f9f"/></linearGradient><linearGradient id="linear-gradient-19" x1="330.41" y1="587.22" x2="566.02" y2="587.22" gradientUnits="userSpaceOnUse"><stop offset="0" stop-color="#818181"/><stop offset="0" stop-color="#696969"/><stop offset="0" stop-color="#4a4a4a"/><stop offset="0.01" stop-color="#333"/><stop offset="0.01" stop-color="#252525"/><stop offset="0.01" stop-color="#202020"/><stop offset="0.01" stop-color="#232323"/><stop offset="0.01" stop-color="#2d2d2d"/><stop offset="0.02" stop-color="#3e3e3e"/><stop offset="0.02" stop-color="#4f4f4f"/><stop offset="0.03" stop-color="#6b6968"/><stop offset="0.4" stop-color="#6b6968"/><stop offset="0.41" stop-color="#6b6968"/><stop offset="0.94" stop-color="#686868"/><stop offset="0.95" stop-color="#4b4b4b"/><stop offset="0.96" stop-color="#232323"/><stop offset="0.97" stop-color="#131313"/><stop offset="0.98" stop-color="#181818"/><stop offset="0.98" stop-color="#262626"/><stop offset="0.99" stop-color="#3e3d3d"/><stop offset="1" stop-color="#605e5d"/><stop offset="1" stop-color="#6b6968"/></linearGradient><linearGradient id="linear-gradient-20" x1="235.62" y1="587.35" x2="330.41" y2="587.35" gradientUnits="userSpaceOnUse"><stop offset="0" stop-color="#838180"/><stop offset="0.06" stop-color="#6b6968"/><stop offset="0.51" stop-color="#838180"/><stop offset="0.94" stop-color="#6b6968"/><stop offset="1" stop-color="#838180"/></linearGradient><linearGradient id="linear-gradient-21" x1="104.1" y1="252.02" x2="461.95" y2="609.87" xlink:href="#linear-gradient-10"/><filter id="luminosity-noclip-8" x="138.81" y="273.38" width="375.65" height="311.65" filterUnits="userSpaceOnUse" color-interpolation-filters="sRGB"><feFlood flood-color="#fff" result="bg"/><feBlend in="SourceGraphic" in2="bg"/></filter><mask id="mask-8" x="138.81" y="273.38" width="375.65" height="311.65" maskUnits="userSpaceOnUse"><g class="cls-7"><path class="cls-8" d="M500.36,273.38H450.47L138.81,585H514.46V287.48A14.1,14.1,0,0,0,500.36,273.38Zm8.49,5.55,0,0,.06.06Z"/></g></mask><linearGradient id="linear-gradient-22" x1="326.64" y1="585.03" x2="326.64" y2="273.38" xlink:href="#linear-gradient-11"/></defs><g class="cls-9"><g id="圖層_2" data-name="圖層 2"><g id="object"><path class="cls-10" d="M528.55,555.45h-1.2v2.68a3.51,3.51,0,0,0,3.56,3.45H727.76a3.51,3.51,0,0,0,3.56-3.45v-2.68Z"/><path class="cls-11" d="M727.76,559H530.91a3.5,3.5,0,0,1-2.06-6.37l19.75-13.85a15.44,15.44,0,0,0,6.54-11.15l6.44-66.22H697.09l6.44,66.22a15.44,15.44,0,0,0,6.54,11.15l19.75,13.85A3.5,3.5,0,0,1,727.76,559Z"/><g class="cls-12"><path class="cls-13" d="M528.55,555.45h-1.2v2.68a3.51,3.51,0,0,0,3.56,3.45H727.76a3.51,3.51,0,0,0,3.56-3.45v-2.68Z"/></g><rect class="cls-14" x="290.98" width="676.7" height="466.44" rx="16.36"/><path d="M967.69,16.94V450.67A16.36,16.36,0,0,1,951.33,467h-644A16.37,16.37,0,0,1,291,450.67V16.94A16.37,16.37,0,0,1,307.34.58h644A16.36,16.36,0,0,1,967.69,16.94Z"/><path class="cls-15" d="M967.69,404.6v46.08A16.38,16.38,0,0,1,951.33,467h-644A16.38,16.38,0,0,1,291,450.68V404.6Z"/><g class="cls-16"><path class="cls-17" d="M963.57,461.51A16.26,16.26,0,0,1,951.33,467h-644a16.26,16.26,0,0,1-12.24-5.52Z"/></g><path class="cls-14" d="M940,28.5H318.64a1.21,1.21,0,0,0-1.21,1.22V404.6h1.84V30.35H939.4V404.6h1.84V29.72A1.21,1.21,0,0,0,940,28.5Z"/><rect class="cls-18" x="290.98" y="404.6" width="676.71" height="2.03"/><rect class="cls-19" x="319.27" y="30.35" width="620.13" height="374.25"/><g class="cls-20"><path class="cls-21" d="M967.69,16.36V404.6H425.29L829.89,0H951.33A16.37,16.37,0,0,1,967.69,16.36Z"/></g><path class="cls-22" d="M0,588.88a206.39,206.39,0,0,0,61.48,9.37h443.1a206.37,206.37,0,0,0,61.47-9.37H0Z"/><path class="cls-23" d="M0,585.52v3.36H228.17a28.36,28.36,0,0,1,6.67.85l.78.16v-4.37Z"/><path class="cls-24" d="M566,585.52v3.36H337.85a28.36,28.36,0,0,0-6.67.85l-.77.16v-4.37Z"/><path class="cls-25" d="M330.41,585.52v4.37a16.31,16.31,0,0,1-3,.28H238.57a16.2,16.2,0,0,1-2.95-.28v-4.37Z"/><path class="cls-26" d="M0,585v3.37H228.17a28.88,28.88,0,0,1,6.67.84l.78.16V585Z"/><path class="cls-27" d="M500.39,275.4H65.73a14.1,14.1,0,0,0-14.11,14.1V584.28h2V287.48a12.32,12.32,0,0,1,.14-1.83c0-.2.06-.4.1-.59s.09-.39.14-.59.1-.38.16-.57a12.13,12.13,0,0,1,2.4-4.3l.39-.43.2-.21a12.72,12.72,0,0,1,2-1.63l.75-.45c.26-.14.52-.27.79-.39h0l.54-.23h0a12,12,0,0,1,4.42-.83H500.36a12,12,0,0,1,5.74,1.45q.39.21.75.45c.33.21.64.43.95.67h0l.45.37h0c.22.19.43.39.63.59l.2.21a5.22,5.22,0,0,1,.39.43,12,12,0,0,1,2.95,7.88v296.8h2V288.61A14.1,14.1,0,0,0,500.39,275.4Z"/><path class="cls-28" d="M51.59,287.48a14.11,14.11,0,0,1,14.11-14.1H500.36a14.1,14.1,0,0,1,14.1,14.1v1.13a14.1,14.1,0,0,0-14.07-13.21H65.73a14.1,14.1,0,0,0-14.11,14.1Z"/><rect class="cls-29" x="53.64" y="574.37" width="458.78" height="9.9"/><path d="M512.42,287.48V574.37H53.64V287.48A12.07,12.07,0,0,1,65.7,275.42H500.36A12.07,12.07,0,0,1,512.42,287.48Z"/><path class="cls-30" d="M566,585v3.37H337.85a28.88,28.88,0,0,0-6.67.84l-.77.16V585Z"/><path class="cls-31" d="M330.41,585v4.37a16.31,16.31,0,0,1-3,.28H238.57a16.2,16.2,0,0,1-2.95-.28V585Z"/><polygon class="cls-32" points="514.46 584.28 514.46 585.03 512.42 585.03 512.42 585.03 53.64 585.03 53.64 585.03 51.62 585.03 51.62 584.28 514.46 584.28"/><rect class="cls-33" x="63.13" y="293" width="439.8" height="275.89"/><g class="cls-34"><path class="cls-35" d="M500.36,273.38H450.47L138.81,585H514.46V287.48A14.1,14.1,0,0,0,500.36,273.38Zm8.49,5.55,0,0,.06.06Z"/></g></g></g></g></svg>