<svg xmlns="http://www.w3.org/2000/svg" viewBox="0 0 1179.4 732.12"><defs><style>.cls-1{fill:#f2f2f2;stroke:#ce8f51;stroke-miterlimit:10;stroke-width:13px;}.cls-2{fill:#e2881b;}.cls-3{fill:#b76b18;}.cls-4{fill:#593e39;}.cls-5{fill:#e5cac6;}.cls-6{fill:#ce781b;}.cls-7{fill:#f2ae25;}</style></defs><g id="圖層_2" data-name="圖層 2"><g id="圖層_1-2" data-name="圖層 1"><rect class="cls-1" x="13.9" y="142.62" width="1159" height="583" rx="96.59"/><path class="cls-2" d="M193.51,47.59c-14-8.16-26.23-19-39.86-27.69C138.5,10.18,121.48,3,103.62.74S67,1.32,51.43,10.35C27.88,24,13.76,50.62,10.54,77.64c-1.25,10.5-1,21.27,1.81,31.45,6.78,24.35,28.37,42.94,52.65,50,13.21,3.82,27.08,4.6,40.81,5.36C171.53,168,238,171.6,302.74,159.86c9.41-1.71,18.92-3.79,27.23-8.52s15.35-12.53,17-21.94c1.08-6.14-.18-12.49-2.37-18.33-5.35-14.19-16.16-25.9-28.91-34.11s-27.36-13.14-42.17-16.39c-13.69-3-25.1-3.72-38.67-2C220.55,60.43,205.65,54.67,193.51,47.59Z"/><path class="cls-2" d="M383,82.28a119.75,119.75,0,0,0-34.49,1,12.86,12.86,0,0,0-6,2.22c-2.5,2-3.2,5.51-3.56,8.72a82.88,82.88,0,0,0,1.68,28.08c2.55,10.75,7.47,8.27,14.27,1.85A114.6,114.6,0,0,0,383,82.28Z"/><path class="cls-2" d="M260.18,11.09a119.54,119.54,0,0,1,9.89,33.06,12.74,12.74,0,0,1-.21,6.41c-1.15,3-4.23,4.77-7.16,6.11a82.89,82.89,0,0,1-27.19,7.23c-11,.95-10.2-4.5-6.24-13A114.55,114.55,0,0,1,260.18,11.09Z"/><path class="cls-3" d="M231.63,160c-11.69-2-23.52-4.53-33.77-10.47S171.61,116,181.69,91.57c9.69-23.43,27.69-31.2,33-32.39C241.84,53.1,260.89,75.64,288,81.89c13.6,3.14,27.73,8.44,35.85,19.8,3.54,5,5.7,10.75,7.36,16.6,2.32,8.21,3.71,17.09,2.1,25.56-1.51,7.92-4,10.4-11.32,12.71-18.53,5.89-37.55,7.93-57,7.08A277.38,277.38,0,0,1,231.63,160Z"/><path class="cls-2" d="M309.64,46.72c9.89,2.2,20.75,11.86,27.82,19.12,8,8.2,12.42,19.39,13.86,30.74s0,22.89-2.48,34.05c-1,4.54-2.29,9.17-5.17,12.81-4.35,5.49-17.39,12.46-24.24,13.91-39.47,8.33-51,8.8-75.11-.51-14.51-5.6-31.75-17.79-46.86-44.95-6.32-11.34-6.21-26.12,1-36.89,9-13.35,27.22-24.56,43.08-27.28C263.4,44,287.74,41.86,309.64,46.72Z"/><path class="cls-4" d="M280.48,105a4.14,4.14,0,0,1,1.38,3.15,4.26,4.26,0,0,1-1.2,2.35c-1.89,2-4.7,3-7.45,3.45s-5.56.65-8.2,1.53a52.24,52.24,0,0,1-3.13-9.62,12.21,12.21,0,0,1-.37-4.25c.19-1.41.89-3.24,2.12-4s5.89-1.35,8.06,2a7.06,7.06,0,0,1,1.53,3.41A7.66,7.66,0,0,1,280.48,105Z"/><path class="cls-4" d="M242.38,121.48a.6.6,0,0,1,.84,0,14,14,0,0,0,9.63,3.94c3.92-.14,7.17-2.75,9.37-5.81.16-.23.32-.46.47-.7s.1-.27.16-.41a42,42,0,0,1,3.81-7.61.6.6,0,0,1,1,.62c-.23.37-.46.74-.68,1.11a.62.62,0,0,1,.07.71,51.77,51.77,0,0,1-3.29,6.09,39.34,39.34,0,0,0-1.57,5.44,8.89,8.89,0,0,0,.64,6.28,20.07,20.07,0,0,0,3.52,5.44,20.39,20.39,0,0,0,5.76,4.43.6.6,0,0,1,.2.82.61.61,0,0,1-.82.2,21.39,21.39,0,0,1-9.39-9.63,14.91,14.91,0,0,1-1.2-3.25,9.47,9.47,0,0,1-.07-3.44,28.78,28.78,0,0,1,.76-3.5,16.2,16.2,0,0,1-2.51,2.22,11.57,11.57,0,0,1-5.65,2.14,12.38,12.38,0,0,1-5.55-.82,17.06,17.06,0,0,1-5.55-3.46A.6.6,0,0,1,242.38,121.48Z"/><path class="cls-4" d="M296.38,120.94a15,15,0,0,0,10.67,7,21.06,21.06,0,0,0,12.74-2.38c3.71-1.92,7.12-5,8.09-9.09a8.14,8.14,0,0,1-4.23,2.74c-5.43,1.93-11.6,2.55-16.89.23s-9.26-8.08-8.22-13.75c-.36,2-3,4.37-3.48,6.68A12.09,12.09,0,0,0,296.38,120.94Z"/><path class="cls-4" d="M228.82,77.49a14.94,14.94,0,0,0,9.5,8.48,21,21,0,0,0,13-.43c4-1.34,7.8-3.88,9.37-7.76a8.26,8.26,0,0,1-4.59,2.07c-5.67,1.09-11.86.76-16.73-2.32s-7.94-9.39-6-14.84c-.66,1.89-3.59,3.88-4.46,6.08A12.09,12.09,0,0,0,228.82,77.49Z"/><path class="cls-3" d="M336.06,67.94c.32-.87.64-1.76.9-2.66l.49.5a46,46,0,0,1,6.77,9C341,79.1,336.38,83.22,333,86.28a56.93,56.93,0,0,1-13.74,9.14C328,89,332.3,78.18,336.06,67.94Z"/><path class="cls-3" d="M301.39,91.57c7.52-11.35,9.27-25.74,16.71-37.15.68-1,1.41-2.07,2.08-3.13a84.07,84.07,0,0,1,12.43,9.76C319.37,67.31,313.4,83.16,301.39,91.57Z"/><path class="cls-3" d="M301.8,45.23q4,.57,7.83,1.43a28.66,28.66,0,0,1,5.76,2,13,13,0,0,0-1.27,1.3c-2.05,2.44-3.26,5.44-4.55,8.34A134.6,134.6,0,0,1,292.46,86.8C294.05,74,295.67,61,300.3,49,300.78,47.7,301.29,46.47,301.8,45.23Z"/><path class="cls-3" d="M282.25,46.39c.28-.86.6-1.71.95-2.55,3.23,0,6.45.16,9.64.4a92.79,92.79,0,0,0-12.61,27C279.51,62.88,279.63,54.33,282.25,46.39Z"/><path class="cls-5" d="M258.93,29a3.26,3.26,0,0,0-1-1.87,2.71,2.71,0,0,0-2.9.19,14,14,0,0,0-4.51,5.05,133.52,133.52,0,0,0-9,17.11c.16-.36,3.42-.58,3.9-.66,1.39-.22,2.79-.43,4.19-.63q4.2-.6,8.41-1.05c1.76-.19,3.39-.36,3.79-2.36s-.44-4.58-.83-6.58C260.4,35.09,259.71,32,258.93,29Z"/><path class="cls-5" d="M370.55,93.53a126.89,126.89,0,0,0-23.05.93,50.39,50.39,0,0,1-.12,26.86c4.3-3.32,7.92-8.18,11.36-12.38,2.05-2.5,4-5.06,6-7.63C365.46,100.36,369.62,93.48,370.55,93.53Z"/><path class="cls-6" d="M100.12,44.84a57.7,57.7,0,0,1,20.31,24.35,76.21,76.21,0,0,1,6.46,31.22,56.44,56.44,0,0,1-1.47,14c-2.58,10.27-9,19.06-14,28.38,11.06-7.37,16.78-20.4,21.17-32.94C137.25,96.53,141.08,82,137,68.58c-3.88-12.69-14.53-22.53-26.67-27.89S86.9,30.93,73.63,31c-4.27,0-14.51,3.44-16.12,8.48,1.68.5,4-.77,5.67-1.31a29.91,29.91,0,0,1,10.17-1.73A51.58,51.58,0,0,1,100.12,44.84Z"/><path class="cls-7" d="M3.47,131.46c6.46,18.72,21.37,34,39.35,42.35,29,13.4,62.79,8.78,94.39,3.9,52.74-8.14,108.28-16,158.18,2.92A20.32,20.32,0,0,0,301,182.2c7.59.6,13.16-8.45,11.62-15.9s-7.79-13-14.26-17c-15-9.31-32.78-13.33-50.4-14.22s-35.25,1.19-52.78,3.27l-54.77,6.49c-20.48,2.42-41.22,4.85-61.65,2s-40.84-11.51-53.63-27.68c-11.89-15-15.92-35.24-12.89-54C10.11,76,4.44,84.77,1.84,95.31A64.49,64.49,0,0,0,3.47,131.46Z"/><path class="cls-3" d="M298.32,149.27a87.29,87.29,0,0,0-20.26-9.12,3.77,3.77,0,0,1,.4,1.14c.3,1.71-.61,3.36-1.43,4.88a73.63,73.63,0,0,0-8.2,25.15c-.08.56-.14,1.12-.19,1.68a169.44,169.44,0,0,1,26.75,7.63A20.32,20.32,0,0,0,301,182.2c7.59.6,13.16-8.45,11.62-15.9S304.79,153.29,298.32,149.27Z"/><path class="cls-3" d="M29.43,124.07a61.62,61.62,0,0,1-4.34-4.91,60.79,60.79,0,0,1-5.58-8.45c-7.42,4.42-13.2,13.47-16,20.8a68.17,68.17,0,0,0,8.94,17.23,62,62,0,0,1,5.87-14.28A27,27,0,0,1,29.43,124.07Z"/><path class="cls-3" d="M100.83,177a55.17,55.17,0,0,1-1.26-18.77,29.68,29.68,0,0,1,2.69-10.2,163.33,163.33,0,0,1-16.41-.45c-4.19,11.12-5.73,23.86-2.36,34.93a181.61,181.61,0,0,0,18.63-.46C101.72,180.4,101.23,178.71,100.83,177Z"/><path class="cls-3" d="M46.78,175.52c1.13-8.45,2.64-16.8,6.65-24.24a31.31,31.31,0,0,1,7-8.65,86.91,86.91,0,0,1-16.07-7.12c-.73,1.2-1.58,2.35-2.37,3.44a65.3,65.3,0,0,0-11.61,27.63,77.42,77.42,0,0,0,12.46,7.23C44.13,174.42,45.45,175,46.78,175.52Z"/><path class="cls-3" d="M144.77,176.55l-1.41-26a29.27,29.27,0,0,1,.13-6.14l-3.12.37c-5.68.67-11.38,1.34-17.08,1.9,1.49,4.39.93,10,.45,14.87a45.87,45.87,0,0,0,1.39,17.94c4.05-.57,8.08-1.19,12.08-1.81Z"/><path class="cls-3" d="M238.11,169.29c0-3.77-.4-7.57,0-11.31a26.39,26.39,0,0,1,12.71-19.48,25.25,25.25,0,0,1,6.51-2.65q-4.71-.56-9.44-.8a219.57,219.57,0,0,0-29.9.81,15.26,15.26,0,0,1,.86,3.68c.49,4.84-.88,9.65-1.63,14.47a57.23,57.23,0,0,0-.33,15C224,168.86,231.08,168.93,238.11,169.29Z"/><path class="cls-3" d="M201.23,158.14c-1.41-6-3.7-12.13-2.91-18.29a12.08,12.08,0,0,1,.41-1.95l-3.59.42L173,140.94c1.52,4.14,1.41,9.29,1.55,13.86A63.07,63.07,0,0,0,177.53,172c8.37-1,16.76-1.8,25.13-2.35A52.67,52.67,0,0,0,201.23,158.14Z"/></g></g></svg>