<svg xmlns="http://www.w3.org/2000/svg" xmlns:xlink="http://www.w3.org/1999/xlink" viewBox="0 0 659.54 343.28"><defs><style>.cls-1{mask:url(#mask);}.cls-10,.cls-12,.cls-2,.cls-22,.cls-4,.cls-6,.cls-8{mix-blend-mode:multiply;}.cls-2{fill:url(#linear-gradient);}.cls-3{mask:url(#mask-2);}.cls-4{fill:url(#linear-gradient-2);}.cls-5{mask:url(#mask-3);}.cls-6{fill:url(#linear-gradient-3);}.cls-7{mask:url(#mask-4);}.cls-8{fill:url(#linear-gradient-4);}.cls-9{mask:url(#mask-5);}.cls-10{fill:url(#linear-gradient-5);}.cls-11{mask:url(#mask-6);}.cls-12{fill:url(#linear-gradient-6);}.cls-13{isolation:isolate;}.cls-14,.cls-26,.cls-51,.cls-68{opacity:0.2;}.cls-15{fill:url(#linear-gradient-7);}.cls-16{fill:url(#linear-gradient-8);}.cls-17{mask:url(#mask-7);}.cls-18{opacity:0.7;fill:url(#linear-gradient-9);}.cls-19{fill:#303030;}.cls-20{fill:url(#linear-gradient-10);}.cls-21{mask:url(#mask-8);}.cls-22{fill:url(#linear-gradient-11);}.cls-23{fill:#787878;}.cls-24{fill:url(#linear-gradient-12);}.cls-25{mask:url(#mask-9);}.cls-26{fill:url(#linear-gradient-13);}.cls-27{fill:url(#linear-gradient-14);}.cls-28{fill:url(#linear-gradient-15);}.cls-29{fill:url(#linear-gradient-16);}.cls-30{fill:url(#linear-gradient-17);}.cls-31{fill:none;}.cls-32{fill:#dfdfdf;}.cls-33{fill:url(#linear-gradient-18);}.cls-34{fill:url(#linear-gradient-19);}.cls-35{fill:url(#linear-gradient-20);}.cls-36{fill:url(#linear-gradient-21);}.cls-37{fill:url(#linear-gradient-22);}.cls-38{fill:url(#linear-gradient-23);}.cls-39{fill:url(#linear-gradient-24);}.cls-40{fill:url(#linear-gradient-25);}.cls-41{fill:url(#linear-gradient-26);}.cls-42{fill:url(#linear-gradient-27);}.cls-43{fill:url(#linear-gradient-28);}.cls-44{fill:url(#linear-gradient-29);}.cls-45{fill:#1b1b1b;}.cls-46{fill:url(#linear-gradient-30);}.cls-47{fill:url(#linear-gradient-31);}.cls-48{fill:#0b0b0b;}.cls-49{fill:url(#linear-gradient-32);}.cls-50{mask:url(#mask-10);}.cls-51{fill:url(#linear-gradient-33);}.cls-52{fill:#c7c7c7;}.cls-53{fill:url(#linear-gradient-34);}.cls-54{fill:url(#linear-gradient-35);}.cls-55{fill:url(#linear-gradient-36);}.cls-56{fill:url(#linear-gradient-37);}.cls-57{fill:#3e3e3e;}.cls-58{fill:url(#linear-gradient-38);}.cls-59{fill:url(#linear-gradient-39);}.cls-60{fill:url(#linear-gradient-40);}.cls-61{fill:url(#linear-gradient-41);}.cls-62{fill:url(#linear-gradient-42);}.cls-63{fill:url(#linear-gradient-43);}.cls-64{fill:url(#linear-gradient-44);}.cls-65{mask:url(#mask-11);}.cls-66{fill:url(#linear-gradient-45);}.cls-67{mask:url(#mask-12);}.cls-68{fill:url(#linear-gradient-46);}.cls-69{filter:url(#luminosity-noclip-12);}.cls-70{filter:url(#luminosity-noclip-11);}.cls-71{filter:url(#luminosity-noclip-10);}.cls-72{filter:url(#luminosity-noclip-9);}.cls-73{filter:url(#luminosity-noclip-8);}.cls-74{filter:url(#luminosity-noclip-7);}.cls-75{filter:url(#luminosity-noclip-6);}.cls-76{filter:url(#luminosity-noclip-5);}.cls-77{filter:url(#luminosity-noclip-4);}.cls-78{filter:url(#luminosity-noclip-3);}.cls-79{filter:url(#luminosity-noclip-2);}.cls-80{filter:url(#luminosity-noclip);}</style><filter id="luminosity-noclip" x="302.6" y="-8402" width="117.04" height="32766" filterUnits="userSpaceOnUse" color-interpolation-filters="sRGB"><feFlood flood-color="#fff" result="bg"/><feBlend in="SourceGraphic" in2="bg"/></filter><mask id="mask" x="302.6" y="-8402" width="117.04" height="32766" maskUnits="userSpaceOnUse"><g class="cls-80"/></mask><linearGradient id="linear-gradient" x1="361.12" y1="473.05" x2="361.12" y2="469.54" gradientUnits="userSpaceOnUse"><stop offset="0" stop-color="#fff"/><stop offset="0.01" stop-color="#f6f6f6"/><stop offset="0.05" stop-color="#c8c8c8"/><stop offset="0.09" stop-color="#9d9d9d"/><stop offset="0.14" stop-color="#777"/><stop offset="0.2" stop-color="#575757"/><stop offset="0.25" stop-color="#3b3b3b"/><stop offset="0.32" stop-color="#252525"/><stop offset="0.4" stop-color="#141414"/><stop offset="0.49" stop-color="#090909"/><stop offset="0.63" stop-color="#020202"/><stop offset="1"/></linearGradient><filter id="luminosity-noclip-2" x="55.77" y="-8402" width="57.9" height="32766" filterUnits="userSpaceOnUse" color-interpolation-filters="sRGB"><feFlood flood-color="#fff" result="bg"/><feBlend in="SourceGraphic" in2="bg"/></filter><mask id="mask-2" x="55.77" y="-8402" width="57.9" height="32766" maskUnits="userSpaceOnUse"><g class="cls-79"/></mask><linearGradient id="linear-gradient-2" x1="84.72" y1="492.88" x2="84.72" y2="376.91" gradientUnits="userSpaceOnUse"><stop offset="0.2"/><stop offset="0.5" stop-color="#020202"/><stop offset="0.6" stop-color="#090909"/><stop offset="0.68" stop-color="#141414"/><stop offset="0.74" stop-color="#252525"/><stop offset="0.8" stop-color="#3b3b3b"/><stop offset="0.84" stop-color="#575757"/><stop offset="0.89" stop-color="#777"/><stop offset="0.93" stop-color="#9d9d9d"/><stop offset="0.96" stop-color="#c8c8c8"/><stop offset="0.99" stop-color="#f6f6f6"/><stop offset="1" stop-color="#fff"/></linearGradient><filter id="luminosity-noclip-3" x="169.33" y="-8402" width="383.58" height="32766" filterUnits="userSpaceOnUse" color-interpolation-filters="sRGB"><feFlood flood-color="#fff" result="bg"/><feBlend in="SourceGraphic" in2="bg"/></filter><mask id="mask-3" x="169.33" y="-8402" width="383.58" height="32766" maskUnits="userSpaceOnUse"><g class="cls-78"/></mask><linearGradient id="linear-gradient-3" x1="361.12" y1="418.8" x2="361.12" y2="415.64" gradientUnits="userSpaceOnUse"><stop offset="0" stop-color="#1a1a1a"/><stop offset="0.55" stop-color="#0e0e0e"/><stop offset="1"/></linearGradient><filter id="luminosity-noclip-4" x="244.03" y="-8402" width="311.23" height="32766" filterUnits="userSpaceOnUse" color-interpolation-filters="sRGB"><feFlood flood-color="#fff" result="bg"/><feBlend in="SourceGraphic" in2="bg"/></filter><mask id="mask-4" x="244.03" y="-8402" width="311.23" height="32766" maskUnits="userSpaceOnUse"><g class="cls-77"/></mask><linearGradient id="linear-gradient-4" x1="399.65" y1="382.98" x2="399.65" y2="150.82" xlink:href="#linear-gradient-2"/><filter id="luminosity-noclip-5" x="470.16" y="-8402" width="215.55" height="32766" filterUnits="userSpaceOnUse" color-interpolation-filters="sRGB"><feFlood flood-color="#fff" result="bg"/><feBlend in="SourceGraphic" in2="bg"/></filter><mask id="mask-5" x="470.16" y="-8402" width="215.55" height="32766" maskUnits="userSpaceOnUse"><g class="cls-76"/></mask><linearGradient id="linear-gradient-5" x1="577.93" y1="486.51" x2="577.93" y2="307.68" xlink:href="#linear-gradient-2"/><filter id="luminosity-noclip-6" x="58.68" y="-8402" width="53" height="32766" filterUnits="userSpaceOnUse" color-interpolation-filters="sRGB"><feFlood flood-color="#fff" result="bg"/><feBlend in="SourceGraphic" in2="bg"/></filter><mask id="mask-6" x="58.68" y="-8402" width="53" height="32766" maskUnits="userSpaceOnUse"><g class="cls-75"/></mask><linearGradient id="linear-gradient-6" x1="85.18" y1="487.51" x2="85.18" y2="375.2" gradientUnits="userSpaceOnUse"><stop offset="0"/><stop offset="0.29" stop-color="#020202"/><stop offset="0.43" stop-color="#0a0a0a"/><stop offset="0.53" stop-color="#171717"/><stop offset="0.62" stop-color="#292929"/><stop offset="0.7" stop-color="#414141"/><stop offset="0.77" stop-color="#5e5e5e"/><stop offset="0.84" stop-color="#818181"/><stop offset="0.9" stop-color="#aaa"/><stop offset="0.96" stop-color="#d7d7d7"/><stop offset="1" stop-color="#fff"/></linearGradient><linearGradient id="linear-gradient-7" x1="302.6" y1="471.3" x2="419.64" y2="471.3" gradientUnits="userSpaceOnUse"><stop offset="0" stop-color="#313131"/><stop offset="0.07" stop-color="#3b3b3b"/><stop offset="0.16" stop-color="#4e4e4e"/><stop offset="0.27" stop-color="#696969"/><stop offset="0.39" stop-color="gray"/><stop offset="0.65" stop-color="#7c7f80"/><stop offset="0.75" stop-color="#6b6d6e"/><stop offset="0.94" stop-color="#3f3f3f"/><stop offset="1" stop-color="#313131"/></linearGradient><linearGradient id="linear-gradient-8" x1="361.12" y1="471.59" x2="361.12" y2="415.59" gradientUnits="userSpaceOnUse"><stop offset="0" stop-color="#525252"/><stop offset="0.16" stop-color="#575757"/><stop offset="0.19" stop-color="#4b4b4b"/><stop offset="0.24" stop-color="#343434"/><stop offset="0.27" stop-color="#3e3e3e"/><stop offset="0.33" stop-color="#595959"/><stop offset="0.39" stop-color="#787878"/><stop offset="0.65" stop-color="#696a6c"/><stop offset="0.76" stop-color="#58585a"/><stop offset="0.98" stop-color="#2b2b2b"/><stop offset="1" stop-color="#262626"/></linearGradient><filter id="luminosity-noclip-7" x="302.6" y="469.54" width="117.04" height="3.51" filterUnits="userSpaceOnUse" color-interpolation-filters="sRGB"><feFlood flood-color="#fff" result="bg"/><feBlend in="SourceGraphic" in2="bg"/></filter><mask id="mask-7" x="246.83" y="318.72" width="117.04" height="3.51" maskUnits="userSpaceOnUse"><g class="cls-74"><g transform="translate(-55.77 -150.82)"><g class="cls-1"><path class="cls-2" d="M303.29,469.54h-.69v1.53a2,2,0,0,0,2,2h113a2,2,0,0,0,2-2v-1.53Z"/></g></g></g></mask><linearGradient id="linear-gradient-9" x1="361.12" y1="473.05" x2="361.12" y2="469.54" gradientUnits="userSpaceOnUse"><stop offset="0" stop-color="#313131"/><stop offset="0.05" stop-color="#383838"/><stop offset="0.2" stop-color="#434343"/><stop offset="0.41" stop-color="#4a4a4a"/><stop offset="1" stop-color="#4c4c4c"/></linearGradient><linearGradient id="linear-gradient-10" x1="166.97" y1="400.89" x2="555.27" y2="400.89" gradientUnits="userSpaceOnUse"><stop offset="0" stop-color="#4a4a4c"/><stop offset="1" stop-color="#717171"/></linearGradient><filter id="luminosity-noclip-8" x="169.33" y="415.64" width="383.58" height="3.16" filterUnits="userSpaceOnUse" color-interpolation-filters="sRGB"><feFlood flood-color="#fff" result="bg"/><feBlend in="SourceGraphic" in2="bg"/></filter><mask id="mask-8" x="113.56" y="264.82" width="383.58" height="3.16" maskUnits="userSpaceOnUse"><g class="cls-73"><g transform="translate(-55.77 -150.82)"><g class="cls-5"><path class="cls-6" d="M552.91,415.64a9.36,9.36,0,0,1-7,3.16H176.35a9.36,9.36,0,0,1-7-3.16Z"/></g></g></g></mask><linearGradient id="linear-gradient-11" x1="361.12" y1="418.8" x2="361.12" y2="415.64" gradientUnits="userSpaceOnUse"><stop offset="0"/><stop offset="0.09" stop-color="#0c0c0c"/><stop offset="0.25" stop-color="#2d2d2d"/><stop offset="0.47" stop-color="#636363"/><stop offset="0.73" stop-color="#adadad"/><stop offset="1" stop-color="#fff"/></linearGradient><linearGradient id="linear-gradient-12" x1="162.7" y1="-17.86" x2="448" y2="267.44" gradientUnits="userSpaceOnUse"><stop offset="0" stop-color="#f1f2f3"/><stop offset="0.36" stop-color="#ecedee"/><stop offset="0.8" stop-color="#dedfdf"/><stop offset="1" stop-color="#d5d6d6"/></linearGradient><filter id="luminosity-noclip-9" x="244.03" y="150.82" width="311.23" height="232.16" filterUnits="userSpaceOnUse" color-interpolation-filters="sRGB"><feFlood flood-color="#fff" result="bg"/><feBlend in="SourceGraphic" in2="bg"/></filter><mask id="mask-9" x="188.27" y="0" width="311.23" height="232.16" maskUnits="userSpaceOnUse"><g class="cls-72"><g transform="translate(-55.77 -150.82)"><g class="cls-7"><path class="cls-8" d="M555.27,160.2V383H244L476.2,150.82h69.68A9.38,9.38,0,0,1,555.27,160.2Z"/></g></g></g></mask><linearGradient id="linear-gradient-13" x1="399.65" y1="382.98" x2="399.65" y2="150.82" gradientUnits="userSpaceOnUse"><stop offset="0.2" stop-color="#fff"/><stop offset="0.89" stop-color="#fff"/><stop offset="1" stop-color="#fff"/></linearGradient><linearGradient id="linear-gradient-14" x1="249.01" y1="442.07" x2="254.48" y2="442.07" gradientUnits="userSpaceOnUse"><stop offset="0" stop-color="gray"/><stop offset="0.28" stop-color="#bababa"/><stop offset="0.37" stop-color="#cecece"/><stop offset="0.5" stop-color="#e9e9e9"/><stop offset="0.61" stop-color="#f9f9f9"/><stop offset="0.7" stop-color="#fff"/><stop offset="0.83" stop-color="#fcfcfc"/><stop offset="0.93" stop-color="#f2f2f2"/><stop offset="1" stop-color="#e5e5e5"/></linearGradient><linearGradient id="linear-gradient-15" x1="193.24" y1="236.73" x2="198.71" y2="236.73" xlink:href="#linear-gradient-14"/><linearGradient id="linear-gradient-16" x1="250.05" y1="331.32" x2="253.43" y2="331.32" xlink:href="#linear-gradient-14"/><linearGradient id="linear-gradient-17" x1="195.97" y1="183.58" x2="195.97" y2="183.36" gradientUnits="userSpaceOnUse"><stop offset="0" stop-color="gray"/><stop offset="0.03" stop-color="#898989"/><stop offset="0.12" stop-color="#9f9f9f"/><stop offset="0.22" stop-color="#aeaeae"/><stop offset="0.33" stop-color="#b7b7b7"/><stop offset="0.49" stop-color="#bababa"/><stop offset="0.67" stop-color="#b7b7b7"/><stop offset="0.8" stop-color="#aeaeae"/><stop offset="0.92" stop-color="#9e9e9e"/><stop offset="1" stop-color="#8d8d8d"/></linearGradient><linearGradient id="linear-gradient-18" x1="-2302" y1="2691.6" x2="-2145.54" y2="2848.06" gradientTransform="matrix(0, 1, 1, 0, -2650.26, 2457.54)" xlink:href="#linear-gradient-12"/><linearGradient id="linear-gradient-19" x1="-2320.17" y1="2769.84" x2="-2312.38" y2="2769.84" gradientTransform="matrix(0, 1, 1, 0, -2594.49, 2608.36)" gradientUnits="userSpaceOnUse"><stop offset="0" stop-color="#f0f0f0"/><stop offset="0.06" stop-color="#ddd"/><stop offset="0.14" stop-color="#c7c7c7"/><stop offset="0.24" stop-color="#b6b6b6"/><stop offset="0.37" stop-color="#aaa"/><stop offset="0.54" stop-color="#a3a3a3"/><stop offset="1" stop-color="#a1a1a1"/></linearGradient><linearGradient id="linear-gradient-20" x1="-2134.95" y1="2769.83" x2="-2127.38" y2="2769.83" gradientTransform="matrix(0, 1, 1, 0, -2594.49, 2608.36)" gradientUnits="userSpaceOnUse"><stop offset="0" stop-color="#a1a1a1"/><stop offset="0.46" stop-color="#a3a3a3"/><stop offset="0.63" stop-color="#aaa"/><stop offset="0.76" stop-color="#b6b6b6"/><stop offset="0.86" stop-color="#c7c7c7"/><stop offset="0.94" stop-color="#ddd"/><stop offset="1" stop-color="#f0f0f0"/></linearGradient><linearGradient id="linear-gradient-21" x1="-2319.41" y1="2700.32" x2="-2128.13" y2="2700.32" gradientTransform="matrix(0, 1, 1, 0, -2594.49, 2608.36)" gradientUnits="userSpaceOnUse"><stop offset="0" stop-color="#c9c9c9"/><stop offset="0.48" stop-color="#f0f0f0"/><stop offset="0.64" stop-color="#ebebeb"/><stop offset="0.82" stop-color="#ddd"/><stop offset="1" stop-color="#c9c9c9"/></linearGradient><linearGradient id="linear-gradient-22" x1="-2319.41" y1="2839.33" x2="-2128.13" y2="2839.33" xlink:href="#linear-gradient-21"/><linearGradient id="linear-gradient-23" x1="552.91" y1="494.1" x2="552.91" y2="488.72" gradientUnits="userSpaceOnUse"><stop offset="0" stop-color="#575453"/><stop offset="0.46" stop-color="#575453"/><stop offset="1" stop-color="#0b0b0b"/></linearGradient><linearGradient id="linear-gradient-24" x1="-5768.5" y1="488.05" x2="-5633.3" y2="488.05" gradientTransform="matrix(-1, 0, 0, 1, -5242.8, 0)" gradientUnits="userSpaceOnUse"><stop offset="0" stop-color="#777"/><stop offset="0" stop-color="#6c6c6c"/><stop offset="0" stop-color="#565656"/><stop offset="0.01" stop-color="#484848"/><stop offset="0.01" stop-color="#434343"/><stop offset="0.01" stop-color="#464646"/><stop offset="0.02" stop-color="#505050"/><stop offset="0.02" stop-color="#5d5d5d"/><stop offset="0.03" stop-color="#7d7d7d"/><stop offset="0.4" stop-color="#838383"/><stop offset="0.41" stop-color="#838383"/><stop offset="0.94" stop-color="#6a6a6a"/><stop offset="0.96" stop-color="#454545"/><stop offset="0.97" stop-color="#353535"/><stop offset="0.98" stop-color="#3a3a3a"/><stop offset="0.99" stop-color="#484848"/><stop offset="0.99" stop-color="#606060"/><stop offset="1" stop-color="#7d7d7d"/></linearGradient><linearGradient id="linear-gradient-25" x1="580.09" y1="488.05" x2="715.29" y2="488.05" gradientUnits="userSpaceOnUse"><stop offset="0" stop-color="#4f4f4f"/><stop offset="0" stop-color="#424242"/><stop offset="0" stop-color="#2c2c2c"/><stop offset="0.01" stop-color="#1e1e1e"/><stop offset="0.01" stop-color="#191919"/><stop offset="0.01" stop-color="#1c1c1c"/><stop offset="0.02" stop-color="#262626"/><stop offset="0.02" stop-color="#343434"/><stop offset="0.03" stop-color="#555"/><stop offset="0.4" stop-color="#5e5e5e"/><stop offset="0.41" stop-color="#5e5e5e"/><stop offset="0.94" stop-color="#424242"/><stop offset="0.96" stop-color="#1a1a1a"/><stop offset="0.97" stop-color="#0a0a0a"/><stop offset="0.98" stop-color="#0f0f0f"/><stop offset="0.99" stop-color="#1d1d1d"/><stop offset="0.99" stop-color="#353535"/><stop offset="1" stop-color="#555"/></linearGradient><linearGradient id="linear-gradient-26" x1="525.7" y1="488.13" x2="580.09" y2="488.13" gradientUnits="userSpaceOnUse"><stop offset="0" stop-color="#555"/><stop offset="0.06" stop-color="#424242"/><stop offset="0.51" stop-color="#555"/><stop offset="0.94" stop-color="#424242"/><stop offset="1" stop-color="#555"/></linearGradient><linearGradient id="linear-gradient-27" x1="-5768.5" y1="487.77" x2="-5633.3" y2="487.77" gradientTransform="matrix(-1, 0, 0, 1, -5242.8, 0)" gradientUnits="userSpaceOnUse"><stop offset="0" stop-color="#a8a8a8"/><stop offset="0" stop-color="#8c8c8c"/><stop offset="0" stop-color="#6d6d6d"/><stop offset="0.01" stop-color="#565656"/><stop offset="0.01" stop-color="#484848"/><stop offset="0.01" stop-color="#434343"/><stop offset="0.01" stop-color="#464646"/><stop offset="0.01" stop-color="#505050"/><stop offset="0.02" stop-color="#616161"/><stop offset="0.02" stop-color="#767676"/><stop offset="0.03" stop-color="#6c6968"/><stop offset="0.4" stop-color="#6c6968"/><stop offset="0.41" stop-color="#6c6968"/><stop offset="0.94" stop-color="#8d8d8d"/><stop offset="0.95" stop-color="#5f5f5f"/><stop offset="0.97" stop-color="#373737"/><stop offset="0.97" stop-color="#272727"/><stop offset="0.98" stop-color="#2c2c2c"/><stop offset="0.99" stop-color="#3a3a39"/><stop offset="0.99" stop-color="#525050"/><stop offset="1" stop-color="#6c6968"/></linearGradient><linearGradient id="linear-gradient-28" x1="552.91" y1="486.08" x2="552.91" y2="308.84" gradientUnits="userSpaceOnUse"><stop offset="0" stop-color="#504d4d"/><stop offset="0.09" stop-color="#585555"/><stop offset="0.24" stop-color="#6e6a6a"/><stop offset="0.41" stop-color="#918c8c"/><stop offset="0.45" stop-color="#999494"/><stop offset="1" stop-color="#7d7979"/></linearGradient><linearGradient id="linear-gradient-29" x1="552.91" y1="316.93" x2="552.91" y2="307.68" gradientUnits="userSpaceOnUse"><stop offset="0" stop-color="#131313"/><stop offset="0.28" stop-color="#161616"/><stop offset="0.44" stop-color="#1e1e1e"/><stop offset="0.58" stop-color="#2c2c2c"/><stop offset="0.7" stop-color="#404040"/><stop offset="0.81" stop-color="#5b5b5b"/><stop offset="0.91" stop-color="#7a7a7a"/><stop offset="1" stop-color="#9f9f9f"/></linearGradient><linearGradient id="linear-gradient-30" x1="580.09" y1="487.77" x2="715.29" y2="487.77" gradientUnits="userSpaceOnUse"><stop offset="0" stop-color="#818181"/><stop offset="0" stop-color="#636363"/><stop offset="0" stop-color="#444"/><stop offset="0.01" stop-color="#2d2d2d"/><stop offset="0.01" stop-color="#1f1f1f"/><stop offset="0.01" stop-color="#1a1a1a"/><stop offset="0.01" stop-color="#1d1d1d"/><stop offset="0.01" stop-color="#272727"/><stop offset="0.02" stop-color="#383838"/><stop offset="0.02" stop-color="#4e4e4e"/><stop offset="0.03" stop-color="#6c6968"/><stop offset="0.4" stop-color="#6c6968"/><stop offset="0.41" stop-color="#6c6968"/><stop offset="0.94" stop-color="#686868"/><stop offset="0.95" stop-color="#434343"/><stop offset="0.96" stop-color="#1b1b1b"/><stop offset="0.97" stop-color="#0b0b0b"/><stop offset="0.98" stop-color="#101010"/><stop offset="0.98" stop-color="#1e1e1e"/><stop offset="0.99" stop-color="#363535"/><stop offset="1" stop-color="#585554"/><stop offset="1" stop-color="#6c6968"/></linearGradient><linearGradient id="linear-gradient-31" x1="525.7" y1="487.85" x2="580.09" y2="487.85" gradientUnits="userSpaceOnUse"><stop offset="0" stop-color="#848180"/><stop offset="0.06" stop-color="#6c6968"/><stop offset="0.51" stop-color="#848180"/><stop offset="0.94" stop-color="#6c6968"/><stop offset="1" stop-color="#848180"/></linearGradient><linearGradient id="linear-gradient-32" x1="394.47" y1="144.61" x2="599.8" y2="349.95" xlink:href="#linear-gradient-12"/><filter id="luminosity-noclip-10" x="470.16" y="307.68" width="215.55" height="178.83" filterUnits="userSpaceOnUse" color-interpolation-filters="sRGB"><feFlood flood-color="#fff" result="bg"/><feBlend in="SourceGraphic" in2="bg"/></filter><mask id="mask-10" x="414.39" y="156.87" width="215.55" height="178.83" maskUnits="userSpaceOnUse"><g class="cls-71"><g transform="translate(-55.77 -150.82)"><g class="cls-9"><path class="cls-10" d="M677.61,307.68H649L470.16,486.51H685.7V315.78A8.1,8.1,0,0,0,677.61,307.68Zm4.87,3.19,0,0,0,0Z"/></g></g></g></mask><linearGradient id="linear-gradient-33" x1="577.93" y1="486.51" x2="577.93" y2="307.68" xlink:href="#linear-gradient-13"/><linearGradient id="linear-gradient-34" x1="55.99" y1="434.88" x2="56.83" y2="434.88" gradientUnits="userSpaceOnUse"><stop offset="0" stop-color="#666"/><stop offset="0.05" stop-color="#717171"/><stop offset="0.33" stop-color="#a8a8a8"/><stop offset="0.57" stop-color="#cfcfcf"/><stop offset="0.75" stop-color="#e7e7e7"/><stop offset="0.87" stop-color="#f0f0f0"/><stop offset="0.94" stop-color="#f6f6f6"/><stop offset="1" stop-color="#fff"/></linearGradient><linearGradient id="linear-gradient-35" x1="112.31" y1="434.89" x2="113.14" y2="434.89" gradientUnits="userSpaceOnUse"><stop offset="0" stop-color="#fff"/><stop offset="0.06" stop-color="#f6f6f6"/><stop offset="0.13" stop-color="#f0f0f0"/><stop offset="0.25" stop-color="#e7e7e7"/><stop offset="0.43" stop-color="#cfcfcf"/><stop offset="0.67" stop-color="#a8a8a8"/><stop offset="0.95" stop-color="#717171"/><stop offset="1" stop-color="#666"/></linearGradient><linearGradient id="linear-gradient-36" x1="84.5" y1="492.66" x2="84.5" y2="485.99" gradientUnits="userSpaceOnUse"><stop offset="0" stop-color="#f0f0f0"/><stop offset="0.12" stop-color="#e2e2e2"/><stop offset="0.33" stop-color="#bebebe"/><stop offset="0.63" stop-color="#838383"/><stop offset="0.99" stop-color="#323232"/><stop offset="1" stop-color="#303030"/></linearGradient><linearGradient id="linear-gradient-37" x1="84.5" y1="383.5" x2="84.5" y2="375.17" gradientUnits="userSpaceOnUse"><stop offset="0" stop-color="#303030"/><stop offset="0.08" stop-color="#4c4c4c"/><stop offset="0.26" stop-color="#828282"/><stop offset="0.43" stop-color="#afafaf"/><stop offset="0.59" stop-color="#d2d2d2"/><stop offset="0.75" stop-color="#ebebeb"/><stop offset="0.89" stop-color="#fafafa"/><stop offset="1" stop-color="#fff"/></linearGradient><linearGradient id="linear-gradient-38" x1="109.68" y1="434.93" x2="111.71" y2="434.93" gradientUnits="userSpaceOnUse"><stop offset="0" stop-color="#f0f0f0"/><stop offset="0.01" stop-color="#ededed"/><stop offset="0.14" stop-color="#b4b4b4"/><stop offset="0.27" stop-color="#858585"/><stop offset="0.4" stop-color="#606060"/><stop offset="0.51" stop-color="#464646"/><stop offset="0.62" stop-color="#363636"/><stop offset="0.7" stop-color="#303030"/></linearGradient><linearGradient id="linear-gradient-39" x1="58.46" y1="488.24" x2="110.55" y2="488.24" gradientUnits="userSpaceOnUse"><stop offset="0"/><stop offset="0.1" stop-color="#121212"/><stop offset="0.25" stop-color="#2a2a2a"/><stop offset="0.4" stop-color="#393939"/><stop offset="0.52" stop-color="#3e3e3e"/><stop offset="0.63" stop-color="#373737"/><stop offset="0.8" stop-color="#222"/><stop offset="1"/><stop offset="1"/></linearGradient><linearGradient id="linear-gradient-40" x1="58.46" y1="381.62" x2="111.71" y2="381.62" xlink:href="#linear-gradient-39"/><linearGradient id="linear-gradient-41" x1="57.29" y1="434.89" x2="58.5" y2="434.89" gradientUnits="userSpaceOnUse"><stop offset="0" stop-color="#3e3e3e"/><stop offset="0.03" stop-color="#3c3c3c"/><stop offset="0.67" stop-color="#131313"/><stop offset="1" stop-color="#030303"/></linearGradient><linearGradient id="linear-gradient-42" x1="109.68" y1="434.93" x2="111.71" y2="434.93" gradientUnits="userSpaceOnUse"><stop offset="0" stop-color="#030303"/><stop offset="0.33" stop-color="#131313"/><stop offset="0.97" stop-color="#3c3c3c"/><stop offset="1" stop-color="#3e3e3e"/></linearGradient><linearGradient id="linear-gradient-43" x1="25.22" y1="230.53" x2="31.9" y2="230.53" gradientUnits="userSpaceOnUse"><stop offset="0" stop-color="#303030"/><stop offset="0.12" stop-color="#242424"/><stop offset="0.3" stop-color="#171717"/><stop offset="0.48" stop-color="#131313"/><stop offset="0.78" stop-color="#151515"/><stop offset="0.89" stop-color="#1c1c1c"/><stop offset="0.96" stop-color="#272727"/><stop offset="1" stop-color="#303030"/></linearGradient><linearGradient id="linear-gradient-44" x1="46" y1="396.39" x2="123" y2="473.39" xlink:href="#linear-gradient-12"/><filter id="luminosity-noclip-11" x="58.68" y="375.2" width="53" height="112.31" filterUnits="userSpaceOnUse" color-interpolation-filters="sRGB"><feFlood flood-color="#fff" result="bg"/><feBlend in="SourceGraphic" in2="bg"/></filter><mask id="mask-11" x="2.91" y="224.38" width="53" height="112.31" maskUnits="userSpaceOnUse"><g class="cls-70"><g transform="translate(-55.77 -150.82)"><g class="cls-11"><path class="cls-12" d="M58.68,483.21v0Zm1.11,1.85h0l.05.05Zm2.69,2,.07,0h0Zm45.26.46h0Zm3.74-112.28s0,0,0,0l.08.07Zm.09,110.5.06-.07.05,0Z"/></g></g></g></mask><linearGradient id="linear-gradient-45" x1="85.18" y1="487.51" x2="85.18" y2="375.2" gradientUnits="userSpaceOnUse"><stop offset="0" stop-color="#fff"/><stop offset="0.85" stop-color="#fff"/><stop offset="1" stop-color="#fff"/></linearGradient><filter id="luminosity-noclip-12" x="55.77" y="376.91" width="57.9" height="115.97" filterUnits="userSpaceOnUse" color-interpolation-filters="sRGB"><feFlood flood-color="#fff" result="bg"/><feBlend in="SourceGraphic" in2="bg"/></filter><mask id="mask-12" x="0" y="226.1" width="57.9" height="115.97" maskUnits="userSpaceOnUse"><g class="cls-69"><g transform="translate(-55.77 -150.82)"><g class="cls-3"><path class="cls-4" d="M113.59,403.75a.26.26,0,0,0-.14-.05.21.21,0,0,0-.21.22V384.73a7.82,7.82,0,0,0-7.82-7.82h-2.93L55.77,423.64v61.42a7.82,7.82,0,0,0,7.82,7.82h41.83a7.82,7.82,0,0,0,7.82-7.82V416.8a.21.21,0,0,0,.21.22.17.17,0,0,0,.14-.06.21.21,0,0,0,.08-.16V403.92A.23.23,0,0,0,113.59,403.75Z"/></g></g></g></mask><linearGradient id="linear-gradient-46" x1="84.72" y1="492.88" x2="84.72" y2="376.91" xlink:href="#linear-gradient-13"/></defs><g class="cls-13"><g id="圖層_2" data-name="圖層 2"><g id="圖層_2-2" data-name="圖層 2"><path class="cls-15" d="M303.29,469.54h-.69v1.53a2,2,0,0,0,2,2h113a2,2,0,0,0,2-2v-1.53Z" transform="translate(-55.77 -150.82)"/><path class="cls-16" d="M417.6,471.59h-113a2,2,0,0,1-1.18-3.65L314.79,460a8.87,8.87,0,0,0,3.75-6.4l3.7-38H400l3.7,38a8.87,8.87,0,0,0,3.75,6.4l11.34,7.95A2,2,0,0,1,417.6,471.59Z" transform="translate(-55.77 -150.82)"/><g class="cls-17"><path class="cls-18" d="M303.29,469.54h-.69v1.53a2,2,0,0,0,2,2h113a2,2,0,0,0,2-2v-1.53Z" transform="translate(-55.77 -150.82)"/></g><rect class="cls-19" x="111.2" width="388.3" height="267.65" rx="9.39"/><path d="M120.59.33H490.12a9.38,9.38,0,0,1,9.38,9.38V258.6a9.39,9.39,0,0,1-9.39,9.39H120.59a9.39,9.39,0,0,1-9.39-9.39V9.72A9.39,9.39,0,0,1,120.59.33Z"/><path class="cls-20" d="M555.27,383v26.44a9.38,9.38,0,0,1-9.39,9.38H176.35a9.38,9.38,0,0,1-9.38-9.38V383Z" transform="translate(-55.77 -150.82)"/><g class="cls-21"><path class="cls-22" d="M552.91,415.64a9.36,9.36,0,0,1-7,3.16H176.35a9.36,9.36,0,0,1-7-3.16Z" transform="translate(-55.77 -150.82)"/></g><path class="cls-19" d="M539.4,167.17H182.84a.69.69,0,0,0-.69.7V383h1V168.23H539V383h1.05V167.87A.69.69,0,0,0,539.4,167.17Z" transform="translate(-55.77 -150.82)"/><rect class="cls-23" x="111.2" y="232.16" width="388.3" height="1.17"/><rect class="cls-24" x="127.43" y="17.42" width="355.84" height="214.75"/><g class="cls-25"><path class="cls-26" d="M555.27,160.2V383H244L476.2,150.82h69.68A9.38,9.38,0,0,1,555.27,160.2Z" transform="translate(-55.77 -150.82)"/></g><path class="cls-27" d="M254.48,440.7a2.74,2.74,0,0,1-5.47,0Z" transform="translate(-55.77 -150.82)"/><polygon class="cls-28" points="198.71 188.73 198.71 289.89 193.24 289.89 193.24 188.73 194.25 183.58 197.7 183.58 198.71 188.73"/><path class="cls-29" d="M253.43,334.18h-3.38l1-5.17a.68.68,0,0,1,1.34,0Z" transform="translate(-55.77 -150.82)"/><polygon class="cls-30" points="197.7 183.58 194.25 183.58 194.29 183.37 197.66 183.37 197.7 183.58"/><path class="cls-31" d="M109.31,481l.61,0H240.76l.61,0,.17,0a6.65,6.65,0,0,0,1-.16l.19,0,.14,0a7.85,7.85,0,0,0,1.67-.66.56.56,0,0,0,.17-.09,3.79,3.79,0,0,0,.34-.2l.15-.09.16-.11a4.35,4.35,0,0,0,.43-.32l.18-.14.27-.24a1.07,1.07,0,0,0,.16-.14l.26-.27h0a6.8,6.8,0,0,0,.5-.57h0a8.56,8.56,0,0,0,.63-.94,3.54,3.54,0,0,0,.19-.33l0-.05.14-.3a3.68,3.68,0,0,0,.15-.35c0-.12.1-.24.14-.36l.12-.36v0c0-.13.07-.25.1-.37s.06-.26.09-.39.05-.26.07-.39,0-.23,0-.35v-.05c0-.19,0-.38,0-.57V296.15c0-.19,0-.38,0-.57v-.06c0-.11,0-.23,0-.34s0-.26-.07-.4-.05-.25-.09-.38-.06-.25-.1-.37v0l-.12-.36c0-.12-.09-.24-.14-.36s-.1-.24-.15-.36-.09-.19-.14-.29l0-.05c-.06-.11-.12-.23-.19-.34a8.43,8.43,0,0,0-.63-.93h0a6.8,6.8,0,0,0-.5-.57v0a3.19,3.19,0,0,0-.26-.26l-.16-.15-.27-.23-.18-.15-.43-.31a.91.91,0,0,0-.16-.11l-.15-.1-.34-.2-.17-.09a7.83,7.83,0,0,0-1.67-.65l-.14,0-.19,0a6.65,6.65,0,0,0-1-.16l-.17,0c-.2,0-.4,0-.61,0H109.92c-.2,0-.41,0-.61,0l-.19,0a6.39,6.39,0,0,0-1,.16l-.19,0-.17,0a8.62,8.62,0,0,0-1.64.65l-.17.09c-.23.13-.45.27-.66.41l-.15.11-.27.2a7.32,7.32,0,0,0-.66.59l-.14.13-.07.07-.06.07-.2.22-.18.22-.07.09,0,.05-.18.24v0l-.2.3,0,0-.18.29c-.07.11-.13.23-.19.34l0,.05c-.06.1-.1.2-.15.29l-.15.36c0,.12-.1.24-.14.36a9,9,0,0,0-.31,1.13c0,.14-.05.27-.06.4s0,.23,0,.34v.06a1.09,1.09,0,0,0,0,.18,1.5,1.5,0,0,0,0,.22c0,.12,0,.25,0,.38V472.81c0,.13,0,.25,0,.38a1.64,1.64,0,0,0,0,.22,1.09,1.09,0,0,0,0,.18v.05c0,.12,0,.23,0,.35s0,.26.06.39a8.71,8.71,0,0,0,.31,1.14c0,.12.09.24.14.36l.15.35c0,.1.09.2.15.3s0,0,0,.05a3.54,3.54,0,0,0,.19.33l.18.3,0,0,.2.3s0,0,0,0l.18.23,0,.06.07.09.18.21a2.09,2.09,0,0,0,.2.22s0,.05.06.07a.23.23,0,0,0,.07.07.93.93,0,0,0,.14.14,7.21,7.21,0,0,0,.66.58l.27.21.15.1a5.59,5.59,0,0,0,.66.41l.17.09a7.47,7.47,0,0,0,1.64.65l.17.05.19,0a7.86,7.86,0,0,0,1,.16Zm.61-.74a7.41,7.41,0,0,1-7.41-7.41V296.36a7.42,7.42,0,0,1,7.41-7.42H240.76a7.42,7.42,0,0,1,7.41,7.42V472.81a7.41,7.41,0,0,1-7.41,7.41Z" transform="translate(-55.77 -150.82)"/><path class="cls-32" d="M240.76,288.11H109.92a8.26,8.26,0,0,0-8.25,8.25V472.81a8.25,8.25,0,0,0,8.25,8.24H240.76a8.25,8.25,0,0,0,8.25-8.24V296.36A8.26,8.26,0,0,0,240.76,288.11ZM248.93,473a.17.17,0,0,1,0,.07c0,.14,0,.29,0,.43v.07a.13.13,0,0,0,0,.06,2.15,2.15,0,0,1,0,.34c0,.13,0,.26-.06.4l-.09.37c0,.13-.06.26-.1.38h0l-.12.37-.14.36-.15.35c-.05.1-.09.2-.15.3a.17.17,0,0,1,0,.05l-.19.34a9.5,9.5,0,0,1-.63.93h0a6.68,6.68,0,0,1-.49.57h0l-.13.13a.93.93,0,0,1-.14.14l-.15.15-.27.23a1.24,1.24,0,0,1-.18.14c-.14.11-.28.22-.43.32l-.16.1s-.1.07-.15.11l-.34.19a.91.91,0,0,1-.17.09,8,8,0,0,1-1.66.66l-.15,0-.19,0a6.85,6.85,0,0,1-1,.16l-.17,0-.61,0H109.92l-.61,0-.19,0c-.34,0-.66-.09-1-.16l-.19,0-.17-.05a7.47,7.47,0,0,1-1.64-.65L106,480a6.55,6.55,0,0,1-.66-.41l-.15-.1-.27-.21c-.23-.18-.45-.37-.67-.58l-.13-.14-.07-.07s-.05,0-.06-.07l-.2-.21-.18-.22-.07-.09s0,0,0-.06l-.18-.23s0,0,0,0l-.2-.3s0,0,0,0l-.18-.29c-.07-.11-.13-.23-.19-.34a.09.09,0,0,0,0-.05c0-.1-.09-.2-.14-.3l-.15-.35c0-.12-.1-.24-.14-.36a9,9,0,0,1-.31-1.13l-.07-.4c0-.12,0-.23,0-.34v-.1a.61.61,0,0,1,0-.14.82.82,0,0,1,0-.22c0-.12,0-.25,0-.38V296.36c0-.13,0-.26,0-.38a.78.78,0,0,1,0-.22.61.61,0,0,1,0-.14v-.1c0-.11,0-.23,0-.34s0-.26.07-.4a8.16,8.16,0,0,1,.31-1.13c0-.12.09-.24.14-.36l.15-.35.14-.3a.09.09,0,0,0,0-.05c.06-.11.12-.23.19-.34s.12-.2.18-.3l0,0,.2-.3v0l.18-.23s0,0,0-.06a.31.31,0,0,1,.07-.09l.18-.22a2,2,0,0,1,.2-.21s0-.05.06-.07l.07-.08.13-.14c.22-.2.44-.4.67-.58l.27-.2.15-.1c.21-.15.44-.29.66-.42l.17-.08a7.47,7.47,0,0,1,1.64-.65l.17-.05.19,0a6.59,6.59,0,0,1,1-.16l.19,0,.61,0H240.76l.61,0,.17,0a6.85,6.85,0,0,1,1,.16l.19,0,.15,0a7,7,0,0,1,1.66.66l.17.08.34.2.15.1a.91.91,0,0,1,.16.11l.43.31.18.15.27.23.15.15a1.72,1.72,0,0,1,.27.27h0c.17.19.34.38.49.58h0a8.43,8.43,0,0,1,.63.93l.19.34,0,.05c.06.1.1.2.15.3a3.68,3.68,0,0,1,.15.35l.14.36.12.36v0c0,.12.07.25.1.37l.09.38c0,.14.05.27.06.4a2,2,0,0,1,0,.34.13.13,0,0,0,0,.06v.09c0,.14,0,.27,0,.41a.17.17,0,0,1,0,.07Z" transform="translate(-55.77 -150.82)"/><rect class="cls-33" x="52.16" y="143.55" width="134.82" height="180.43" rx="1.99"/><path d="M109.92,480.22H240.76a7.41,7.41,0,0,0,7.41-7.41V296.36a7.42,7.42,0,0,0-7.41-7.42H109.92a7.42,7.42,0,0,0-7.41,7.42V472.81A7.41,7.41,0,0,0,109.92,480.22Zm0-5.29a2.12,2.12,0,0,1-2.12-2.12V296.36a2.12,2.12,0,0,1,2.12-2.12H240.76a2.12,2.12,0,0,1,2.12,2.12V472.81a2.12,2.12,0,0,1-2.12,2.12Z" transform="translate(-55.77 -150.82)"/><path class="cls-34" d="M248.92,296a2.45,2.45,0,0,0,0-.27.57.57,0,0,0,0-.13v-.06c0-.11,0-.23,0-.34s0-.26-.07-.4l-.09-.38c0-.12-.06-.25-.1-.37v0l-.12-.36c0-.12-.09-.24-.14-.36l-.15-.36a2.59,2.59,0,0,1-.14-.29l0-.05c-.06-.11-.12-.23-.19-.34a8.43,8.43,0,0,0-.63-.93h0c-.16-.2-.33-.39-.5-.57v0c-.08-.09-.17-.17-.26-.26l-.16-.15-.27-.23-.18-.15-.43-.31-.16-.11-.15-.1-.34-.2-.17-.09a7.83,7.83,0,0,0-1.67-.65l-.14,0-.19,0a6.65,6.65,0,0,0-1-.16l-.17,0c-.2,0-.4,0-.61,0H109.92c-.2,0-.41,0-.61,0l-.19,0a6.39,6.39,0,0,0-1,.16l-.19,0-.17,0a8.62,8.62,0,0,0-1.64.65l-.17.09c-.23.13-.45.27-.66.41l-.15.11-.27.2a7.32,7.32,0,0,0-.66.59l-.14.13-.07.07-.06.07-.2.22-.18.22-.07.09,0,.05-.18.24v0l-.2.3,0,0-.18.29c-.07.11-.13.23-.19.34l0,.05-.15.29-.15.36c0,.12-.1.24-.14.36a9,9,0,0,0-.31,1.13l-.06.4c0,.11,0,.23,0,.34v.06a1.09,1.09,0,0,0,0,.18.76.76,0,0,1,0-.15c0-.12,0-.24,0-.36l0-.17c0-.07,0-.14,0-.21s0-.22.07-.32.06-.23.1-.34l.09-.27a4.82,4.82,0,0,1,.22-.57l.08-.18.13-.26v0l.16-.29h0a1.37,1.37,0,0,1,.13-.2,1.74,1.74,0,0,1,.11-.18l0,0a1.89,1.89,0,0,1,.2-.27,2.48,2.48,0,0,1,.19-.26l0-.05a1.21,1.21,0,0,1,.21-.24l.24-.26.23-.22.06-.06.24-.2.28-.22.23-.16.12-.09.15-.09.15-.09a2.91,2.91,0,0,1,.3-.17l.18-.1.45-.21.15-.06.23-.08.3-.1.31-.09h0l.35-.08h0l.26-.05a7.12,7.12,0,0,1,1.23-.11H241.52l.44,0h.23l.2,0h.09l.26,0h0l.16,0,.08,0h0l.23,0,.1,0,.32.09.31.1h0a.76.76,0,0,1,.16.06h0l.17.07h0l.45.21.19.1.29.17.15.09.15.09.12.09.23.16.28.22.21.18,0,0,.06.06,0,0,.2.2a1.8,1.8,0,0,1,.19.2h0l.08.09a1.46,1.46,0,0,1,.16.19l.06.06.2.26a1.27,1.27,0,0,1,.13.19l0,0,.1.15a2.33,2.33,0,0,1,.17.26v0l.1.18.06.11a1.74,1.74,0,0,1,.1.19c0,.09.09.18.13.27l.09.2,0,.07c0,.07,0,.14.08.22s0,.08.05.13a0,0,0,0,0,0,0c0,.08.05.16.07.24s.06.18.08.26,0,0,0,0l0,.09.06.25v0a1.55,1.55,0,0,1,0,.21l0,.17c0,.12,0,.24,0,.36A2.31,2.31,0,0,1,248.92,296Z" transform="translate(-55.77 -150.82)"/><path class="cls-32" d="M248.93,296.36c0-.13,0-.26,0-.38C248.93,296.1,248.93,296.23,248.93,296.36Z" transform="translate(-55.77 -150.82)"/><path class="cls-35" d="M109.92,481H240.76l.61,0,.17,0a6.65,6.65,0,0,0,1-.16l.19,0,.14,0a7.85,7.85,0,0,0,1.67-.66l.17-.09a3.79,3.79,0,0,0,.34-.2l.15-.09.16-.11c.15-.1.29-.21.43-.32l.18-.14.27-.24a1.07,1.07,0,0,0,.16-.14l.26-.27h0c.17-.18.34-.37.5-.57h0a8.56,8.56,0,0,0,.63-.94,3.54,3.54,0,0,0,.19-.33l0-.05c0-.1.09-.2.14-.3l.15-.35c0-.12.1-.24.14-.36l.12-.36v0c0-.13.07-.25.1-.37l.09-.39c0-.13.05-.26.07-.39s0-.23,0-.35v-.05a.62.62,0,0,0,0-.13.28.28,0,0,1,0,.09c0,.12,0,.25,0,.36l0,.18a1.55,1.55,0,0,1,0,.21c0,.12-.05.24-.08.36l-.09.3c0,.08-.05.16-.07.24l-.17.45-.09.2a2.1,2.1,0,0,1-.13.26,1.24,1.24,0,0,1-.1.2l-.06.1a1.28,1.28,0,0,1-.11.2c0,.09-.11.18-.17.27l-.1.15-.15.21-.2.26-.06.06c0,.06-.1.13-.16.19l-.08.09-.2.21-.23.22-.06.05-.24.21-.28.22-.23.16-.12.08-.15.1-.15.09-.29.17-.19.1-.45.2-.18.07-.19.07-.31.11-.32.09-.36.08-.27.05a7.09,7.09,0,0,1-1.22.1H109.16a7.12,7.12,0,0,1-1.23-.1l-.26-.05h0l-.35-.08h0l-.31-.09-.3-.1-.23-.09-.15-.06-.45-.2-.18-.1a2.91,2.91,0,0,1-.3-.17l-.15-.09-.15-.1-.12-.08-.23-.16-.28-.22-.24-.21-.06-.05-.23-.22-.24-.26a2.25,2.25,0,0,1-.21-.24l0-.05-.19-.26L103,477a.05.05,0,0,1,0,0,1,1,0,0,1-.11-.17,1.37,1.37,0,0,1-.13-.2h0l-.16-.29v0c0-.09-.09-.18-.13-.27s0-.11-.08-.17a4.82,4.82,0,0,1-.22-.57l-.09-.27c0-.11-.07-.23-.1-.34s0-.21-.07-.32,0-.14,0-.21l0-.18c0-.11,0-.24,0-.36a.61.61,0,0,1,0-.14,1.09,1.09,0,0,0,0,.18v.05c0,.12,0,.24,0,.35l.06.39a8.71,8.71,0,0,0,.31,1.14c0,.12.09.24.14.36l.15.35.15.3s0,0,0,.05a3.54,3.54,0,0,0,.19.33l.18.3,0,0,.2.3s0,0,0,0l.18.23,0,.06.07.09.18.21a2.09,2.09,0,0,0,.2.22s0,.05.06.07a.23.23,0,0,0,.07.07.93.93,0,0,0,.14.14,7.21,7.21,0,0,0,.66.58l.27.21.15.1a5.59,5.59,0,0,0,.66.41l.17.09a7.47,7.47,0,0,0,1.64.65l.17.05.19,0a7.86,7.86,0,0,0,1,.16l.19,0Z" transform="translate(-55.77 -150.82)"/><path class="cls-32" d="M248.93,472.81c0,.13,0,.25,0,.38C248.93,473.06,248.93,472.94,248.93,472.81Z" transform="translate(-55.77 -150.82)"/><path class="cls-36" d="M109.16,480.22h.76a7.41,7.41,0,0,1-7.41-7.41V296.36a7.42,7.42,0,0,1,7.41-7.42h-.76a7.12,7.12,0,0,0-1.23.11l-.26.05h0l-.35.08h0l-.31.09-.3.1-.23.08-.15.06-.45.21-.18.1a2.91,2.91,0,0,0-.3.17l-.15.09-.15.09-.12.09-.23.16-.28.22-.24.2-.06.06-.23.22-.24.26a2.57,2.57,0,0,0-.21.24l0,.05-.19.26a1.89,1.89,0,0,0-.2.27l0,0a1.74,1.74,0,0,0-.11.18,1.37,1.37,0,0,0-.13.2h0l-.16.29v0l-.13.26-.08.18a4.82,4.82,0,0,0-.22.57l-.09.27c0,.11-.07.23-.1.34s0,.21-.07.32,0,.14,0,.21l0,.17c0,.12,0,.24,0,.36a.76.76,0,0,0,0,.15,1.5,1.5,0,0,0,0,.22c0,.12,0,.25,0,.38V472.81c0,.13,0,.25,0,.38a1.64,1.64,0,0,0,0,.22.61.61,0,0,0,0,.14c0,.12,0,.25,0,.36l0,.18c0,.07,0,.14,0,.21s0,.21.07.32.06.23.1.34l.09.27a4.82,4.82,0,0,0,.22.57c0,.06.05.12.08.17s.08.18.13.27v0l.16.29h0a1.37,1.37,0,0,0,.13.2,1,1,0,0,0,.11.17.05.05,0,0,0,0,0l.2.27.19.26,0,.05.21.24.24.26.23.22.06.05.24.21.28.22.23.16.12.08.15.1.15.09a2.91,2.91,0,0,0,.3.17l.18.1.45.2.15.06.23.09.3.1.31.09h0l.35.08h0l.26.05A7.12,7.12,0,0,0,109.16,480.22Z" transform="translate(-55.77 -150.82)"/><path class="cls-37" d="M240.76,480.22h.76a7.09,7.09,0,0,0,1.22-.1l.27-.05.36-.08.32-.09.31-.11.19-.07.18-.07.45-.2.19-.1.29-.17.15-.09.15-.1.12-.08.23-.16.28-.22.24-.21.06-.05.23-.22.2-.21.08-.09c.06-.06.11-.13.16-.19l.06-.06c.06-.09.13-.17.2-.26l.15-.21.1-.15c.06-.09.12-.18.17-.27a1.28,1.28,0,0,0,.11-.2l.06-.1a1.24,1.24,0,0,0,.1-.2,2.1,2.1,0,0,0,.13-.26l.09-.2.17-.45c0-.08.05-.16.07-.24l.09-.3c0-.12.05-.24.08-.36a1.55,1.55,0,0,0,0-.21l0-.18c0-.11,0-.24,0-.36a.28.28,0,0,0,0-.09,2.45,2.45,0,0,0,0-.27V296a2.45,2.45,0,0,0,0-.27.38.38,0,0,0,0-.1c0-.12,0-.24,0-.36l0-.17a1.55,1.55,0,0,0,0-.21v0l-.06-.25,0-.09s0,0,0,0-.05-.17-.08-.26-.05-.16-.07-.24a0,0,0,0,1,0,0c0-.05,0-.09-.05-.13s-.06-.15-.08-.22l0-.07-.09-.2c0-.09-.08-.18-.13-.27a1.74,1.74,0,0,0-.1-.19l-.06-.11-.1-.18v0a2.33,2.33,0,0,0-.17-.26l-.1-.15,0,0c0-.07-.09-.13-.13-.19l-.2-.26-.06-.06a1.46,1.46,0,0,0-.16-.19l-.08-.09h0l-.19-.2-.2-.2,0,0-.06-.06,0,0-.21-.18-.28-.22-.23-.16-.12-.09-.15-.09-.15-.09-.29-.17-.19-.1-.45-.21h0l-.17-.07h0a.76.76,0,0,0-.16-.06h0l-.31-.1-.32-.09-.1,0-.23,0h0l-.08,0-.16,0h0l-.26,0h-.09l-.2,0H242l-.44,0h-.76a7.42,7.42,0,0,1,7.41,7.42V472.81A7.41,7.41,0,0,1,240.76,480.22Z" transform="translate(-55.77 -150.82)"/><path class="cls-38" d="M390.5,488.72a118.26,118.26,0,0,0,35.28,5.38H680a118.21,118.21,0,0,0,35.28-5.38H390.5Z" transform="translate(-55.77 -150.82)"/><path class="cls-39" d="M390.5,486.79v1.93H521.43a16.55,16.55,0,0,1,3.83.49l.44.09v-2.51Z" transform="translate(-55.77 -150.82)"/><path class="cls-40" d="M715.29,486.79v1.93H584.37a16.55,16.55,0,0,0-3.83.49l-.45.09v-2.51Z" transform="translate(-55.77 -150.82)"/><path class="cls-41" d="M580.09,486.79v2.51a9.49,9.49,0,0,1-1.69.16h-51a9.69,9.69,0,0,1-1.7-.16v-2.51Z" transform="translate(-55.77 -150.82)"/><path class="cls-42" d="M390.5,486.51v1.93H521.43a16.55,16.55,0,0,1,3.83.49l.44.09v-2.51Z" transform="translate(-55.77 -150.82)"/><path class="cls-43" d="M677.63,308.84H428.22a8.1,8.1,0,0,0-8.1,8.09V486.08h1.16V315.78a7.45,7.45,0,0,1,.08-1.06l.06-.34c0-.11.05-.22.08-.33l.09-.33a6.91,6.91,0,0,1,1.38-2.47l.22-.25.12-.11a6.54,6.54,0,0,1,1.16-.94l.44-.26.44-.22h0l.31-.13h0a6.86,6.86,0,0,1,2.53-.48H677.61a6.93,6.93,0,0,1,3.3.83l.43.26c.19.12.37.25.54.38h0a2.75,2.75,0,0,1,.26.22h0a3.89,3.89,0,0,1,.36.34l.12.11c.08.08.15.17.22.25a6.85,6.85,0,0,1,1.69,4.53v170.3h1.17V316.43A8.08,8.08,0,0,0,677.63,308.84Z" transform="translate(-55.77 -150.82)"/><path class="cls-44" d="M420.11,315.78a8.1,8.1,0,0,1,8.09-8.1H677.61a8.1,8.1,0,0,1,8.09,8.1v.65a8.08,8.08,0,0,0-8.07-7.59H428.22a8.1,8.1,0,0,0-8.1,8.09Z" transform="translate(-55.77 -150.82)"/><rect class="cls-45" x="365.51" y="329.58" width="263.25" height="5.68"/><path d="M684.53,315.78V480.4H421.28V315.78a6.93,6.93,0,0,1,6.92-6.92H677.61A6.92,6.92,0,0,1,684.53,315.78Z" transform="translate(-55.77 -150.82)"/><path class="cls-46" d="M715.29,486.51v1.93H584.37a16.55,16.55,0,0,0-3.83.49l-.45.09v-2.51Z" transform="translate(-55.77 -150.82)"/><path class="cls-47" d="M580.09,486.51V489a9.49,9.49,0,0,1-1.69.16h-51a9.69,9.69,0,0,1-1.7-.16v-2.51Z" transform="translate(-55.77 -150.82)"/><polygon class="cls-48" points="629.94 335.26 629.94 335.7 628.76 335.7 628.76 335.69 365.51 335.69 365.51 335.7 364.36 335.7 364.36 335.26 629.94 335.26"/><rect class="cls-49" x="370.96" y="168.12" width="252.36" height="158.31"/><g class="cls-50"><path class="cls-51" d="M677.61,307.68H649L470.16,486.51H685.7V315.78A8.1,8.1,0,0,0,677.61,307.68Zm4.87,3.19,0,0,0,0Z" transform="translate(-55.77 -150.82)"/></g><path class="cls-52" d="M105.42,376.91H63.59a7.82,7.82,0,0,0-7.82,7.82V485.06a7.82,7.82,0,0,0,7.82,7.82h41.83a7.82,7.82,0,0,0,7.81-7.82V384.73A7.82,7.82,0,0,0,105.42,376.91ZM113,484.33a7.54,7.54,0,0,1-.37,2.34l-.06.17-.06.16a.5.5,0,0,1,0,.13c0,.12-.1.24-.15.36s0,.11-.08.16a1.51,1.51,0,0,1-.11.22,1.09,1.09,0,0,1-.08.15l-.08.15c-.09.14-.17.28-.26.41l-.09.13a1.71,1.71,0,0,1-.11.14l-.1.14-.11.14-.11.13c-.08.09-.15.18-.23.26l-.38.38-.12.11-.28.24-.13.09-.42.31-.15.1-.3.18L109,491a4.66,4.66,0,0,1-.5.25l-.14.06-.16.07-.17.06-.37.13-.13,0a4.77,4.77,0,0,1-.51.13l-.18,0-.19,0-.36.05h-.14l.32,0,.16,0,.15,0,.46-.11.15-.05.3-.1.44-.17.14-.06.14-.07.27-.15.27-.15.24-.15,0,0a4.44,4.44,0,0,0,.38-.27l.12-.09.33-.29a7.76,7.76,0,0,0,.73-.79l.09-.12a7,7,0,0,0,.82-1.39l.1-.24a7.12,7.12,0,0,0,.35-1.22,2.17,2.17,0,0,0,0-.25,7.17,7.17,0,0,0,.08-1V384.73a6.9,6.9,0,0,0-6.15-6.84H63.23a6.88,6.88,0,0,0-6.52,6.86V485.06a6.88,6.88,0,0,0,6.11,6.83h-.15l-.35-.05a7.74,7.74,0,0,1-2-.66l-.13-.06-.34-.18-.15-.09a7.11,7.11,0,0,1-.72-.5l-.12-.09-.36-.31-.11-.1-.13-.13-.12-.12L58,489.5l-.1-.11a7.33,7.33,0,0,1-.54-.68l-.09-.13c-.09-.13-.18-.27-.26-.41l-.09-.15a8.33,8.33,0,0,1-.53-1.18,1.09,1.09,0,0,1,0-.17,7,7,0,0,1-.23-.87l0-.18a7.83,7.83,0,0,1-.11-1.29V384.51c0-.06,0-.11,0-.17a2.19,2.19,0,0,1,0-.36,1.23,1.23,0,0,1,0-.19v-.1a.6.6,0,0,1,0-.12l0-.18.06-.32c0-.06,0-.11,0-.16s.08-.31.13-.47,0-.1,0-.14l.06-.18.06-.15,0-.12.06-.14s0-.07,0-.1.05-.11.07-.16l.14-.27.07-.13.09-.16a6.6,6.6,0,0,1,.72-1,1.34,1.34,0,0,1,.11-.14l.14-.15.22-.24.26-.24.27-.23.14-.12.28-.21.3-.2.3-.19.15-.08.16-.09.16-.08.16-.08.33-.14.16-.06h0l.16-.06.16-.05.18-.06.18-.05.18,0,.17,0,.37-.07.18,0,.39,0,.32,0h42.58c.12,0,.24,0,.36,0h0l.18,0,.19,0,.18,0,.18,0h0l.18,0,.16,0h0l.15,0,.21.06.14,0,.32.11.21.08.15.07.16.07.16.08a7.84,7.84,0,0,1,1.09.65l.13.1c.15.11.29.23.43.35l.19.16a9.33,9.33,0,0,1,.68.73,1.34,1.34,0,0,1,.11.14l.22.29.11.16c.06.08.11.17.17.26l.08.13c0,.09.1.17.14.26a.83.83,0,0,1,.07.13,3.68,3.68,0,0,1,.21.45.61.61,0,0,1,0,.12c.07.15.12.3.18.46a.84.84,0,0,1,0,.17,7.23,7.23,0,0,1,.25,1s0,.08,0,.12l0,.18c0,.06,0,.12,0,.19s0,.12,0,.18,0,.23,0,.35a1.62,1.62,0,0,1,0,.22Z" transform="translate(-55.77 -150.82)"/><path class="cls-53" d="M62.86,491.9l-.18,0h0l-.35-.05a7.74,7.74,0,0,1-2-.66l-.13-.06-.34-.18-.15-.09a7.11,7.11,0,0,1-.72-.5l-.12-.09-.36-.31-.11-.1-.13-.13-.12-.12L58,489.5l-.1-.11a7.33,7.33,0,0,1-.54-.68l-.09-.13c-.09-.13-.18-.27-.26-.41l-.09-.15a8.33,8.33,0,0,1-.53-1.18,1.09,1.09,0,0,1,0-.17,7,7,0,0,1-.23-.87l0-.18a7.83,7.83,0,0,1-.11-1.29V385.46a7.61,7.61,0,0,1,7.24-7.59,6.88,6.88,0,0,0-6.52,6.86V485.06A6.9,6.9,0,0,0,62.86,491.9Z" transform="translate(-55.77 -150.82)"/><path class="cls-54" d="M113,385.46v98.87a7.54,7.54,0,0,1-.37,2.34l-.06.17-.06.16a.5.5,0,0,1,0,.13c0,.12-.1.24-.15.36s0,.11-.08.16a1.51,1.51,0,0,1-.11.22,1.09,1.09,0,0,1-.08.15l-.08.15c-.09.14-.17.28-.26.41l-.09.13a1.71,1.71,0,0,1-.11.14l-.1.14-.11.14-.11.13c-.08.09-.15.18-.23.26l-.38.38-.12.11-.28.24-.13.09-.42.31-.15.1-.3.18L109,491a4.66,4.66,0,0,1-.5.25l-.14.06-.16.07-.17.06-.37.13-.13,0a4.77,4.77,0,0,1-.51.13l-.18,0-.19,0-.36.05h0l-.19,0a6.9,6.9,0,0,0,6.15-6.84V384.73a6.88,6.88,0,0,0-6.33-6.85A7.61,7.61,0,0,1,113,385.46Z" transform="translate(-55.77 -150.82)"/><path class="cls-55" d="M113,484.33v.73a7.61,7.61,0,0,1-7.6,7.6H63.59a7.61,7.61,0,0,1-7.6-7.6v-.73a7.83,7.83,0,0,0,.11,1.29l0,.18a7,7,0,0,0,.23.87,1.09,1.09,0,0,0,0,.17,8.33,8.33,0,0,0,.53,1.18l.09.15c.08.14.17.28.26.41l.09.13a7.33,7.33,0,0,0,.54.68l.1.11.08.09.12.12.13.13.11.1.36.31.12.09a7.11,7.11,0,0,0,.72.5l.15.09.34.18.13.06a7.74,7.74,0,0,0,2,.66l.35.05h0l.36,0,.19,0h42.54l.19,0,.3,0h.07l.36-.05.19,0,.18,0a4.77,4.77,0,0,0,.51-.13l.13,0,.37-.13.17-.06.16-.07.14-.06a4.66,4.66,0,0,0,.5-.25l.15-.08.3-.18.15-.1.42-.31.13-.09.28-.24.12-.11.38-.38c.08-.08.15-.17.23-.26l.11-.13.11-.14.1-.14a1.71,1.71,0,0,0,.11-.14l.09-.13c.09-.13.17-.27.26-.41l.08-.15a1.09,1.09,0,0,0,.08-.15,1.51,1.51,0,0,0,.11-.22s0-.1.08-.16.11-.24.15-.36a.5.5,0,0,0,0-.13l.06-.16.06-.17A7.54,7.54,0,0,0,113,484.33Z" transform="translate(-55.77 -150.82)"/><path class="cls-56" d="M113,384.73v.73a7.61,7.61,0,0,0-6.88-7.57H63.23A7.61,7.61,0,0,0,56,385.46v-.95c0-.06,0-.11,0-.17a2.19,2.19,0,0,1,0-.36,1.23,1.23,0,0,1,0-.19v-.1a.6.6,0,0,1,0-.12l0-.18.06-.32c0-.06,0-.11,0-.16s.08-.31.13-.47,0-.1,0-.14l.06-.18.06-.15,0-.12.06-.14s0-.07,0-.1.05-.11.07-.16l.14-.27.07-.13.09-.16a6.6,6.6,0,0,1,.72-1,1.34,1.34,0,0,1,.11-.14l.14-.15.22-.24.26-.24.27-.23.14-.12.28-.21.3-.2.3-.19.15-.08.16-.09.16-.08.16-.08.33-.14.16-.06h0l.16-.06.16-.05.18-.06.18-.05.18,0,.17,0,.37-.07.18,0,.39,0,.32,0h42.58c.12,0,.24,0,.36,0h0l.18,0,.19,0,.18,0,.18,0h0l.18,0,.16,0h0l.15,0,.21.06.14,0,.32.11.21.08.15.07.16.07.16.08a7.84,7.84,0,0,1,1.09.65l.13.1c.15.11.29.23.43.35l.19.16a9.33,9.33,0,0,1,.68.73,1.34,1.34,0,0,1,.11.14l.22.29.11.16c.06.08.11.17.17.26l.08.13c0,.09.1.17.14.26a.83.83,0,0,1,.07.13,3.68,3.68,0,0,1,.21.45.61.61,0,0,1,0,.12c.07.15.12.3.18.46a.84.84,0,0,1,0,.17,7.23,7.23,0,0,1,.25,1s0,.08,0,.12l0,.18c0,.06,0,.12,0,.19s0,.12,0,.18,0,.23,0,.35A1.62,1.62,0,0,1,113,384.73Z" transform="translate(-55.77 -150.82)"/><path class="cls-57" d="M105.77,377.87H63.23a6.88,6.88,0,0,0-6.52,6.86V485.06A6.89,6.89,0,0,0,63,491.91l.19,0h42.54l.19,0a6.88,6.88,0,0,0,6.33-6.85V384.73A6.87,6.87,0,0,0,105.77,377.87Zm5.94,107.19a6.32,6.32,0,0,1-5.79,6.27H63.09a6.32,6.32,0,0,1-5.8-6.27V384.73a6.29,6.29,0,0,1,6-6.28h42.5a6.28,6.28,0,0,1,6,6.28Z" transform="translate(-55.77 -150.82)"/><path class="cls-58" d="M111.71,384.77V485.1a6.32,6.32,0,0,1-.26,1.8,6.45,6.45,0,0,1-.56,1.29l-.15.25-.25.36a6.35,6.35,0,0,1-.81.91,6.56,6.56,0,0,0,.87-3.26v-103a6.61,6.61,0,0,0-.87-3.28A6.29,6.29,0,0,1,111.71,384.77Z" transform="translate(-55.77 -150.82)"/><path d="M105.72,379H63.26a5.71,5.71,0,0,0-5.39,5.7V485.06a5.75,5.75,0,0,0,5.27,5.7h42.73a5.73,5.73,0,0,0,5.26-5.69V384.73A5.71,5.71,0,0,0,105.72,379Zm3.89,106a4.22,4.22,0,0,1-.87,2.55l-.09.11c-.09.11-.19.22-.29.32a3.47,3.47,0,0,1-.29.25h0a2.82,2.82,0,0,1-.39.29,3.38,3.38,0,0,1-.41.24h0l-.22.1h0l-.22.09-.48.14a5.58,5.58,0,0,1-.59.09H63.26a4.21,4.21,0,0,1-3.86-4.18V384.73a4.19,4.19,0,0,1,3.91-4.18H106l.13,0h0l.18,0h0l.15,0,.22.06.17.06.18.07a4,4,0,0,1,.36.17l.3.18.07,0,.12.08.15.12.29.26a.86.86,0,0,1,.13.14.86.86,0,0,1,.13.14,4.53,4.53,0,0,1,.45.63l.18.35c0,.12.1.24.14.36a.6.6,0,0,1,.06.19,2.73,2.73,0,0,1,.1.41.55.55,0,0,1,0,.17,4.07,4.07,0,0,1,0,.61Z" transform="translate(-55.77 -150.82)"/><path d="M70.58,382.47l0-.08a0,0,0,0,0,0,0Z" transform="translate(-55.77 -150.82)"/><path d="M98.47,382.36a0,0,0,0,1,0,0,.2.2,0,0,1,0,.08A.37.37,0,0,0,98.47,382.36Z" transform="translate(-55.77 -150.82)"/><path d="M99.38,380.54a.71.71,0,0,0-.66.63v.09c0,.13,0,.25,0,.37l0,.13h0l0,.15a.74.74,0,0,1,0,.14v0a30906320514.93,30906320514.93,0,0,1,0,.06v.05s0,0,0,.05a.61.61,0,0,1,0,.12.37.37,0,0,1,0,.11v0h0l0,.1,0,.08v0l0,0,0,.05v0l0,0,0,0,0,0v0l0,0,0,0,0,0h0l0,0h0l0,0h0l0,.06,0,.06h0l0,0,0,0,0,0-.07.06-.06.05,0,0-.08.07-.08.06-.05,0,0,0h0a.1.1,0,0,1,0,0l0,0-.09.06-.08.05L97,384l0,0h0l-.07,0-.06,0-.06,0h0l0,0h0l-.16.06-.14,0-.16.05a1.65,1.65,0,0,1-.32.06l-.14,0H73.25l-.14,0a1.91,1.91,0,0,1-.33-.06l-.16-.05-.14,0-.15-.06h0l0,0h0l-.06,0-.06,0-.08,0h0a.05.05,0,0,1,0,0l-.1,0-.07-.05-.1-.06,0,0-.06,0h0l-.06,0-.05,0-.07-.06-.09-.07,0,0,0-.05-.07-.06,0,0,0,0,0,0h0l0,0-.07-.09h0l0,0h0l0,0h0l0,0s0,0,0,0l0,0a0,0,0,0,0,0,0l0,0,0,0,0,0,0,0v0l0-.05,0,0v0l0-.08a.31.31,0,0,0,0-.1h0v0l0-.11,0-.12,0-.05,0-.05a30906320510,30906320510,0,0,1,0-.06v0l0-.14a.83.83,0,0,1,0-.15h0a.51.51,0,0,1,0-.13,2.21,2.21,0,0,1,0-.37s0-.06,0-.09a.7.7,0,0,0-.66-.63Z" transform="translate(-55.77 -150.82)"/><path d="M73.39,384.41h0Z" transform="translate(-55.77 -150.82)"/><path d="M95.73,384.41h0Z" transform="translate(-55.77 -150.82)"/><path d="M70.49,382.24h0v0Z" transform="translate(-55.77 -150.82)"/><path d="M70.58,382.47l0-.08a0,0,0,0,0,0,0Z" transform="translate(-55.77 -150.82)"/><path d="M71,383.15l0-.06h0Z" transform="translate(-55.77 -150.82)"/><path d="M71.12,383.3l-.05-.06,0,0h0Z" transform="translate(-55.77 -150.82)"/><path d="M71.18,383.37l0,0h0Z" transform="translate(-55.77 -150.82)"/><path d="M71.57,383.72l-.07-.06a.1.1,0,0,1,0,0l0,0,.09.07Z" transform="translate(-55.77 -150.82)"/><path d="M71.62,383.76l.06,0h0Z" transform="translate(-55.77 -150.82)"/><path d="M71.86,383.92l-.06,0h0l0,0Z" transform="translate(-55.77 -150.82)"/><path d="M72.48,384.23l-.13-.05h0Z" transform="translate(-55.77 -150.82)"/><path d="M72.62,384.27l.16.05-.1,0h-.06l-.07,0-.07,0Z" transform="translate(-55.77 -150.82)"/><path d="M73.11,384.38l.14,0h-.2l-.11,0-.13,0h0A1.91,1.91,0,0,0,73.11,384.38Z" transform="translate(-55.77 -150.82)"/><path d="M73.39,384.41h0Z" transform="translate(-55.77 -150.82)"/><path d="M95.43,384.42h0Z" transform="translate(-55.77 -150.82)"/><path d="M95.61,384.41h0Z" transform="translate(-55.77 -150.82)"/><path d="M95.9,384.38a1.65,1.65,0,0,0,.32-.06h0l-.14,0-.11,0h-.19Z" transform="translate(-55.77 -150.82)"/><path d="M96.52,384.23l-.07,0-.07,0h0l-.11,0,.16-.05Z" transform="translate(-55.77 -150.82)"/><path d="M96.52,384.23l.16-.06h0Z" transform="translate(-55.77 -150.82)"/><path d="M97.15,383.92l.09-.06,0,0h0Z" transform="translate(-55.77 -150.82)"/><path d="M97.38,383.76l0,0h0Z" transform="translate(-55.77 -150.82)"/><path d="M97.59,383.59l0,0,0,0s-.05,0-.08.06l.08-.06Z" transform="translate(-55.77 -150.82)"/><path d="M97.86,383.33l0,0,0,0Z" transform="translate(-55.77 -150.82)"/><path d="M98,383.21l0,0,0,0,0-.06Z" transform="translate(-55.77 -150.82)"/><path d="M98.05,383.09l0,.06,0,0Z" transform="translate(-55.77 -150.82)"/><path d="M98.47,382.36a0,0,0,0,1,0,0,.2.2,0,0,1,0,.08A.37.37,0,0,0,98.47,382.36Z" transform="translate(-55.77 -150.82)"/><path d="M98.54,382.19l0,0h0S98.53,382.2,98.54,382.19Z" transform="translate(-55.77 -150.82)"/><path class="cls-59" d="M110.55,485.3v1.15a6.56,6.56,0,0,1-.87,3.26,6.21,6.21,0,0,1-3.76,1.65l-.17,0H63.26l-.17,0-.24,0a6.26,6.26,0,0,1-3.52-1.63,6.57,6.57,0,0,1-.87-3.27v-1.35a5.15,5.15,0,0,0,4.72,5.12h42.66A5.16,5.16,0,0,0,110.55,485.3Z" transform="translate(-55.77 -150.82)"/><path class="cls-60" d="M111.71,384.77h0a6.28,6.28,0,0,0-6-6.28H63.25c-.14,0-.27,0-.4,0a6.31,6.31,0,0,0-3.53,1.62,6.57,6.57,0,0,0-.86,3.28v1.35a5.13,5.13,0,0,1,4.82-5.12h42.41a5.12,5.12,0,0,1,4.86,4.91v-1.13a6.61,6.61,0,0,0-.87-3.28A6.29,6.29,0,0,1,111.71,384.77Z" transform="translate(-55.77 -150.82)"/><path class="cls-61" d="M59.33,489.68a6.31,6.31,0,0,1-2-4.62V384.73a6.29,6.29,0,0,1,2-4.63,6.57,6.57,0,0,0-.86,3.28v103A6.47,6.47,0,0,0,59.33,489.68Z" transform="translate(-55.77 -150.82)"/><path class="cls-62" d="M111.71,384.77V485.1a6.32,6.32,0,0,1-.26,1.8,6.45,6.45,0,0,1-.56,1.29l-.15.25-.25.36a6.43,6.43,0,0,1-.81.92h0a6.56,6.56,0,0,0,.87-3.26v-103a6.61,6.61,0,0,0-.87-3.28A6.29,6.29,0,0,1,111.71,384.77Z" transform="translate(-55.77 -150.82)"/><rect class="cls-63" x="25.22" y="230.18" width="6.68" height="0.7" rx="0.33"/><path class="cls-64" d="M109.61,384.73V485.06a4.22,4.22,0,0,1-.87,2.55l-.09.11c-.1.11-.19.22-.29.32a3.47,3.47,0,0,1-.29.25h0a2.82,2.82,0,0,1-.39.29,3.38,3.38,0,0,1-.41.24h0l-.22.1h0l-.22.09-.48.14a5.58,5.58,0,0,1-.59.09H63.26a4.21,4.21,0,0,1-3.86-4.18V384.73a4.19,4.19,0,0,1,3.91-4.18h6.31a.7.7,0,0,1,.66.63.15.15,0,0,1,0,.07h0a2.21,2.21,0,0,0,0,.37.51.51,0,0,0,0,.13h0a.83.83,0,0,0,0,.15l0,.14v0a30906320510,30906320510,0,0,0,0,.06l0,.05v0h0l0,.12,0,.11v0h0a.31.31,0,0,1,0,.1l0,.08v0l0,0,0,.05v0l0,0,0,0,0,0,0,0a0,0,0,0,1,0,0l0,0s0,0,0,0l0,0h0l0,0h0l0,0h0s0,0,0,0l.05.06,0,0h0l0,0,0,0,0,0,.07.06,0,.05,0,0,0,0a.1.1,0,0,0,0,0h0l.07.06.05,0,0,0h0l.06,0,0,0,0,0h0l.06,0,.07.05.1,0a.05.05,0,0,0,0,0h0l.08,0,.06,0,.06,0h0l0,0h0l.13.05.07,0,.07,0h.06l.1,0h0l.13,0,.11,0H96l.11,0,.14,0h0l.11,0h0l.07,0,.07,0,.13-.05h0l0,0h0l.06,0,.06,0,.07,0h0l0,0,.09,0,.08-.05,0,0h0l0,0,0,0a.1.1,0,0,0,0,0h0l0,0,.05,0s0,0,.08-.06h0l0,0,0,0,0,0,.06-.05.07-.06,0,0,0,0,0,0h0l0-.06,0,0,0,0h0l0,0h0l0,0h0l0,0,0,0,0,0v0l0,0,0,0,0,0v0l0-.05,0,0v0l0-.08,0-.1h0v0a.37.37,0,0,0,0-.11.61.61,0,0,0,0-.12h0l0,0v-.05a30906320514.93,30906320514.93,0,0,0,0-.06v0a.74.74,0,0,0,0-.14l0-.15h0l0-.13c0-.12,0-.24,0-.37h0v-.07a.71.71,0,0,1,.66-.63H106l.13,0h0l.18,0h0l.15,0,.22.06.17.06.18.07.36.17.3.18.07,0,.12.08.15.12.29.26a.86.86,0,0,1,.13.14.86.86,0,0,1,.13.14,4.53,4.53,0,0,1,.45.63l.18.35c0,.12.1.24.14.36a.6.6,0,0,1,.06.19,2.73,2.73,0,0,1,.1.41,1.22,1.22,0,0,1,0,.17A4.07,4.07,0,0,1,109.61,384.73Z" transform="translate(-55.77 -150.82)"/><g class="cls-65"><path class="cls-66" d="M58.68,483.21v0Zm1.11,1.85h0l.05.05Zm2.69,2,.07,0h0Zm45.26.46h0Zm3.74-112.28s0,0,0,0l.08.07Zm.09,110.5.06-.07.05,0Z" transform="translate(-55.77 -150.82)"/></g><g class="cls-67"><path class="cls-68" d="M113.59,403.75a.26.26,0,0,0-.14-.05.21.21,0,0,0-.21.22V384.73a7.82,7.82,0,0,0-7.82-7.82h-2.93L55.77,423.64v61.42a7.82,7.82,0,0,0,7.82,7.82h41.83a7.82,7.82,0,0,0,7.82-7.82V416.8a.21.21,0,0,0,.21.22.17.17,0,0,0,.14-.06.21.21,0,0,0,.08-.16V403.92A.23.23,0,0,0,113.59,403.75Z" transform="translate(-55.77 -150.82)"/></g></g></g></g></svg>