<svg xmlns="http://www.w3.org/2000/svg" viewBox="0 0 465.3 512.06"><defs><style>.cls-1{fill:#fbf8bf;}.cls-2{fill:#cccdcf;}.cls-3{fill:#c8002b;opacity:0.5;}</style></defs><g id="圖層_2" data-name="圖層 2"><g id="圖層_1-2" data-name="圖層 1"><path class="cls-1" d="M62.56,24.77C66.77,5.7,465.3,107,465.3,107s-42.53,185.5-59.67,405.08L0,434.52S-2.93,321.8,62.56,24.77Z"/><rect class="cls-2" x="254.31" y="-44.46" width="1.39" height="335.41" transform="translate(85.93 350.47) rotate(-79.14)"/><rect class="cls-2" x="242" y="2.48" width="1.4" height="335.41" transform="translate(29.84 376.47) rotate(-79.14)"/><rect class="cls-2" x="231.37" y="52.09" width="1.39" height="335.41" transform="translate(-27.64 406.13) rotate(-79.1)"/><rect class="cls-2" x="223.38" y="99.95" width="1.39" height="335.41" transform="translate(-81.12 437.09) rotate(-79.1)"/><rect class="cls-2" x="216.12" y="150.77" width="1.39" height="335.41" transform="translate(-136.9 471.17) rotate(-79.1)"/><rect class="cls-2" x="207.98" y="201.4" width="1.39" height="335.41" transform="translate(-193.22 504.23) rotate(-79.1)"/><rect class="cls-2" x="203.28" y="252.76" width="1.39" height="335.41" transform="translate(-247.47 541.27) rotate(-79.1)"/><path class="cls-3" d="M85.35,25.19,120.06,4.81l3.86-2.27a29.63,29.63,0,0,1,3-1.55A11.46,11.46,0,0,1,130,.06a6.23,6.23,0,0,1,3.13.36c1.08,1.07,3.14,6,1.67,1,1.8,5.23,1,8,1.36,1.43-.3,6.58-1.22,7.2.78,1.09-2,6.11-2.64,6.4.73,1.14-3.37,5.26-3.69,5.39.71,1.14-4.4,4.25-4.37,4.25.92,1.38-5.29,2.87-4.86,2.72,1,1.32-5.85,1.4-5,1.09,1.05,1.28-6.1-.19-2.07-.48,2.38,3.21-4-3.14-7.26-3.81-1.28-2-6-1.84,2.1,3.59,2.46,4.59s.15,1.22-.16.7-6.19-7-1.15-4.11c-5-2.84.39,3.9.32,4.83s-.24,1.18-.22.68-1.6-4.46.86-3.75c-2.46-.71-1,3.33-1.11,3.95s0,.53.23-.23-1.74-5.37,1.12-4.34c-2.86-1-.87,3.57-1.09,4.35s-.27.88,0,.31,0-2.91,1.6-3.72c-1.59.81-1.51,3.21-1.83,3.92-.63,1.41,0,.46,2.58-2.65-3.86,4.66-3.1,4.38,0-1.11-3.13,5.49-3.31,5.57.65.75-4,4.82-3.76,4.75.64.31-4.4,4.44-4.26,4.4.58.46-4.84,3.94-4.57,3.84.74.57-5.31,3.27-5.08,3.18.46.33-5.54,2.85-4.94,2.6.9.66-5.84,1.94-5.9,2-.09-.08-5.81,2.05-5.18,1.75.73.54-5.91,1.21-5.7,1.11.22.14-5.92,1-5.37.68.52.37-5.89.31-5.17-.1.63.42-5.8-.52-6-.37-.32-.89-5.72.52-4.76-.08,1,1.31-5.72-1.39-5.61-1.45.07-.78-5.68-.67-4.67-1.37,1.22,1.61-5.89-3-5.81-3,.28-.64-6.09-2.4-5.53-2.67,1,1.44-6.56-4.11-4.12-3.27,1.31.79-5.28-4,1.08-.24,1.33.77.39-.64.89.51,1.34.76l1.34.74c1.34.74,2.69,1.47,4,2.18L128.55,44c-6.79,3.28-13.62,6.58-19.79,10.84-5.53,3.83-10.48,8.4-16,12.26a152.43,152.43,0,0,1-17.27,10l-7.92,4.15c-1.32.69-2.7,1.33-4,2.07s-2.65,1.36-4,2.08-2.94,1-4,2.07a8.76,8.76,0,0,0-4,2.08,7.79,7.79,0,0,0-4,2.07,6.63,6.63,0,0,0-4,2.07c-1.52.21-4.39-.12-4,2.08-1.75-2-3.39-4.22-1.48-1.34-2.27-3.21-2.8-4.33-1.44-1.38-1.5-3.1-1.5-3.51-1.5-1.55-.07-2-.08-2.07-1.22-1.37,1.1-.74.36-.62-2.55-2.46,2.7,1.63,2.56,1.47.05-.62,2.47,2,0,.67-2.49-1.45,2.25,2,4,3,1.74.45,2.25,2.5-.77.68-2.63-.84,1.6,1.39,3.48,2.48,1.83,0,1.62,2.48-1.26.7-2.5-.41.91.66.84-.15,1.11-1.71-.29,1.52-.77,1.76-1.38,1.13.55.38.46-.64,1-1.86-.53,1.19-.57,1.87-.94,1.44.37.26.29-.7.78-1.82-.51,1.15-.34,1.57-.4,1,.29-.17.36-1.39.33-2.74a5.05,5.05,0,0,1-.31,2.55c0,.45-.17,0,.19-1.19-.36,1.18-.2,1.34-.09.78A6.37,6.37,0,0,0,28,79.31a5.67,5.67,0,0,1,0,2.76c-.16.42-.36.19-.22-1-.14,1.21.09,1.24.25.65a5.86,5.86,0,0,0-.14-3.12,5.44,5.44,0,0,1,.13,3c-.18.56-.44.5-.38-.72-.13,2.4,1.12-.72.14-3.15.95,2.18-.06,4.7-.54,2.43.48,2.25,1.51-1.44.56-3.46.92,1.76.06,4.7-.94,2.74,1,1.95,1.91-1.37,1-3.08,1,1.79.09,5.41-.64,3.35.72,2,1.62-2.08.76-3.81.8,1.35,0,4.15-1.44,2.72C28,80,28.83,77,28.1,75.64c.88,1.56.09,5.61-.79,3.73.87,1.88,1.74-2.38.92-3.94.74,1.16-.12,3.81-1.78,2.71,1.66,1.09,2.74-2,2.17-3.23.87,1.22.13,4.85-1.31,3.47,1.44,1.38,2.17-2.28,1.3-3.5.55,1.17-.53,4.19-2.24,3.17,1.71,1,2.58-1.6,1.88-2.72.81,1.5,0,5.75-1,3.92.95,1.83,1.81-2.4,1-3.92.7,1.12-.2,3.63-2,2.65,1.73,1,2.55-2.29,2-3.36A2,2,0,0,1,26,77.27c2,.37,3-2.15,2.6-3.12.55.66-.5,1.82-2.75,2,2.25-.23,3.4-1.45,2.9-2.16.47.89-.61,3-2.72,2.83,2.11.13,3.48-1.82,3.07-2.79.76.9-.18,3-2.35,2.72,1.73.77,2.63-1.12,2.23-2.49.86.68.54.47-.46-.06a2.3,2.3,0,0,1-2.78,2.14c2.19-.18,3.07-1.82,2.57-2.52.19.44-1.25.68-3.45,1.37,2.2-.68,3.34-1.07,3-1.47.2.44-1.07.84-3.21,1.56,2.14-.72,3.31-1.15,3.07-1.56.22.35-1,.64-3.14,1.34,2.14-.7,3.28-1.11,3.06-1.51.12.17-1.16.12-3.36.56,2.19-.44,3.47-.42,3.34-.62.2.34-1,.58-3.14,1.21,2.16-.64,3.29-.9,3.08-1.26.08.12-1.22,0-3.42.28,2.2-.27,3.46-.17,3.37-.28.17.33-1,.57-3.13,1.18,2.15-.61,3.17-.86,2.93-1.15,0,.11-1.32.06-3.45.35,2.13-.29,3.33-.33,3.29-.53.12,0-1-.11-3.18-.12a17.59,17.59,0,0,0,3.12,0c0,.06-1.23-.09-3.36-.23,2.13.13,3,.21,2.9,0a28.47,28.47,0,0,0-3.21-1.27c3.88,1.46,2.32,1.3-.51-1.54,2.81,2.79.68,2.26-.47-1.55,1.1,3.63-1.79,1.24-.9-2.59-1.2,3.11-1.31-.19-1.3-2.34-.84,1-1.15-1.32-1.88-2a37.27,37.27,0,0,1,3.53-2.64c8.82-5.88,21.28-9.87,30.29-14.83C63.37,38.1,74.36,31.64,85.35,25.19Z"/></g></g></svg>