<svg xmlns="http://www.w3.org/2000/svg" viewBox="0 0 313.68 535.53"><defs><style>.cls-1{isolation:isolate;}.cls-13,.cls-15,.cls-17,.cls-18,.cls-2,.cls-20,.cls-6,.cls-7,.cls-8{fill:none;}.cls-11,.cls-12,.cls-13,.cls-2,.cls-3,.cls-7{stroke:#666;}.cls-11,.cls-12,.cls-13,.cls-14,.cls-15,.cls-17,.cls-18,.cls-2,.cls-20,.cls-3,.cls-4,.cls-5,.cls-6,.cls-8{stroke-miterlimit:10;}.cls-14,.cls-2,.cls-20,.cls-6{stroke-width:4px;}.cls-19,.cls-3{fill:#b3b3b3;}.cls-3,.cls-8{stroke-width:3px;}.cls-4,.cls-5{fill:#e6e6e6;}.cls-17,.cls-18,.cls-4{stroke:gray;}.cls-5{stroke:#999;}.cls-11,.cls-12,.cls-5{stroke-width:2px;}.cls-14,.cls-15,.cls-6,.cls-8{stroke:#4d4d4d;}.cls-7{stroke-linecap:round;stroke-linejoin:bevel;stroke-width:5px;}.cls-14,.cls-9{fill:#4d4d4d;}.cls-9{opacity:0.42;}.cls-10{fill:#666;opacity:0.22;}.cls-11,.cls-12{fill:#ccc;}.cls-11{opacity:0.69;}.cls-12{opacity:0.46;}.cls-15{opacity:0.85;}.cls-16{fill:#999;mix-blend-mode:darken;}.cls-18{opacity:0.71;}.cls-20{stroke:#333;}.cls-21{font-size:30px;font-family:'Indie Flower', cursive;}</style></defs><g class="cls-1"><g id="圖層_2" data-name="圖層 2"><g id="圖層_1-2" data-name="圖層 1"><path class="cls-2" d="M287.83,80.43a116.68,116.68,0,0,1,14.4,34.35c2.22,10.48,1.67,16.56,2.17,29.57.84,22,3.12,23.3,5.43,48.76,3.09,34,1.47,58.5,1.09,63.81-1,13.92-1.95,26.39-6.52,42.53-3.4,12-5.84,15.6-13.55,33.78-9.66,22.76-30.56,75.33-38.28,74.44a105.76,105.76,0,0,0-11.06-1.25,71.14,71.14,0,0,0-7.49,0,84.33,84.33,0,0,0-26.7,6c-11.63,4.1-23.52,2.08-83.8-18.93-31.57-11-47.44-16.6-51.86-21.16-16.85-17.35-.37-39-18.3-73-2.61-5-2.34-16.31-10.28-24.38-6.39-6.49-11-5.24-18.68-9.94C8,254.78-1.94,229.62,3.49,213.11c2.68-8.15,7.38-8.94,15.31-17.53,14.26-15.46,16-31.26,24.81-66.05S56.08,76.74,60.78,70.22C101.31,14,261.28,38.9,287.83,80.43Z"/><path class="cls-3" d="M119.84,85.2c6.48-1.82,39.89-11.22,72.52-8.35,55.35,4.88,94.79,50,110.07,38.16,9-7,.57-31.17-4.53-41.54-6.16-12.55-15.25-20.31-20.16-24.41-8-6.68-11.73-7.36-28.4-18.28-12.72-8.34-14.3-10.42-19.78-13.84-14.32-9-24.84-8.1-71.51-11.86-39.36-3.16-40.47-4.45-51.23-3C95.07,3.75,76.14,6.37,58.32,20.37,37.71,36.58,30.13,58.93,28.24,64.75c-.23.73-.39,1.26-.56,1.82C26.3,71,24.51,92,20.92,133.94c-2.43,28.44.46.3-2.05,49.08-.91,17.74-1.34,22.2.92,23.31,6.58,3.25,27.6-26,28.54-44,.43-8.18.09-16.4.09-16.41-.17-4.12-.63-11.69-.63-11.69s18,9.74,20.82,6.33-13.72-16.35-10.8-27.39c1.48-5.62,7.25-7.86,29.08-15.9C108.21,89.4,118.87,85.47,119.84,85.2Z"/><path class="cls-4" d="M169.91,166.33c.93-2.42-23.07-24.1-49.74-20.19-24.6,3.62-40.15,27.35-38.49,29.65,1.53,2.14,17.06-15.16,43.81-17.71C151.05,155.65,169.12,168.36,169.91,166.33Z"/><path class="cls-5" d="M303.12,166.83c2.84-2.71,1.87-11-2-15.23-13.76-15.09-66.45,16.37-66,17.54.31.76,22.08-15.37,46.58-8.14C291.76,164,299.66,170.13,303.12,166.83Z"/><path class="cls-6" d="M212,203.76c.64,4.11,1.71,10.08,3.48,17.18,6,24.2,12.95,32.67,9.13,38.16-2.58,3.69-10.19,6.26-32.53,1"/><path class="cls-7" d="M246.88,324.77A56.74,56.74,0,0,1,226,331c-4.33.4-9.2.33-28.45-3.32-8.68-1.65-16-3.21-21.48-4.44"/><path class="cls-8" d="M47.33,200.79c-6.16-4.89-19.35-3.32-26.71,2.41-14.55,11.33-8.22,40.36,8.5,53.12,1.75,1.34,10,7.65,15.34,5.36,4.93-2.12,3.21-9.86,4.2-30.77C49.67,209.74,52.06,204.54,47.33,200.79Z"/><path class="cls-9" d="M80.45,82.9c-6,5.45-17,17.31-14.53,21,2.83,4.28,22.61-9.93,53.72-19.1h0c10.53-2.72,47.75-11.73,79.92-6.85a151.92,151.92,0,0,1,19,4.15c7.27,2.2,8.82,3.4,35.85,16.08,19.23,9,18.85,8.6,21.73,10.38,6.19,3.8,10.56,7.35,12.16,6.17,2-1.45-1.69-8.93-2.38-10.32C273.92,79.91,138.12,30.6,80.45,82.9Z"/><path class="cls-10" d="M236.36,253.65c2.32-4.38-.08-9.5-3.48-16.07-5.95-11.52-18.14-35.08-20.9-33.82-1.06.48.45,6.05,3.48,17.18,3.41,12.53,5.11,18.79,7,22.18,1.1,2,2.71,4.57,2.9,8.32.24,4.46-1.73,6.69-.58,7.76C226.48,260.8,233.83,258.46,236.36,253.65Z"/><path class="cls-11" d="M144.86,328.12a144.68,144.68,0,0,0,7.61-20.79c1.79-6.4,2.24-9.78,5.44-13.74,3-3.71,5.53-4.33,10.79-8.58a63.08,63.08,0,0,0,10.11-10.27"/><path class="cls-12" d="M271.66,331.17A54.77,54.77,0,0,1,263,309.36c-.86-5.68-.52-10.38-4-15.81-1.71-2.64-3.16-3.63-7.63-8s-8-8.27-10.17-10.82"/><path class="cls-13" d="M130.7,202.1a17.32,17.32,0,0,0-9.42-1.53c-3.7.51-4.93,2-10.65,4.56a70,70,0,0,1-12.17,4.06,74.78,74.78,0,0,1-13.19,2"/><path class="cls-13" d="M134.18,197.11a26.55,26.55,0,0,1-17.41,2.77,25.39,25.39,0,0,1-12.19-6.1"/><path class="cls-14" d="M126.05,205.22c1.08.88,5.32-6.38,14.16-7.84,7.65-1.25,13,2.79,13.6,1.63.82-1.52-6.95-11-15.61-9.62C128.79,190.87,124.71,204.13,126.05,205.22Z"/><path class="cls-15" d="M104.8,329.64a112,112,0,0,0,8.87-24.59c2.57-11.11,2-16.52,6.73-25.56a66.36,66.36,0,0,1,9-13c4.44-4.73,6-4.66,8.63-8.62,3.59-5.5,2.3-8.41,5.57-13.7a24.81,24.81,0,0,1,8.88-8.36"/><path class="cls-13" d="M288.24,201.38a22.93,22.93,0,0,1,12,2.88A19.69,19.69,0,0,1,309.83,218"/><path class="cls-13" d="M285.35,196.4a18.87,18.87,0,0,0,14.46,2.77,20.18,20.18,0,0,0,10.12-6.09"/><path class="cls-16" d="M62.7,334.72c4.06.39,1.09,14.27,12.68,27.89,4.6,5.41,11.18,9,24.34,16.23,11,6,19.71,10.8,29.42,14.2,5.31,1.86,10.75,3.25,15.72,7.61a19.9,19.9,0,0,0,4.77,3.43c3.16,1.54,5.43,1.19,10,2.23,2.16.49,4.8,1.13,8.21,2,13.77,3.61,18.77,4.89,23.2,5.34.58.05,1.94.15,3.5.2,13.4.44,25.67-4.13,30.94-6.12,8.18-3.08,10.8-2.72,11.67-1.52,1.42,1.95-3.19,5.49-6.09,13.69-1.13,3.22-1.62,9.12-2.53,20.8-.86,11-.61,11.39-1.52,13.18-3,5.83-8.18,6.26-18.77,12.18-13,7.24-12.57,10.73-18.26,12.17-11.09,2.81-18.86-8.84-35.5-20.29-36-24.8-68.14-17.38-76.76-38-1.34-3.22-3-10.95-10.32-16-6.73-4.71-10.77-4.27-14.52-7.21C38.26,385.18,54.84,334,62.7,334.72Z"/><path class="cls-13" d="M301,273.14a52.24,52.24,0,0,0-12.34-16.28,56.75,56.75,0,0,0-8-5.82c-8.51-5.11-14.41-5.74-21.89-8.38a74.41,74.41,0,0,1-20-10.87"/><path class="cls-15" d="M85,263.2c3.52-11.78,9-18.48,13-22.22,2.31-2.21,5.55-4.56,12-9.18,6.06-4.39,11.16-7.85,14.66-10.18"/><path class="cls-14" d="M264.58,204c.88,1.08,6.53-5.16,15.47-4.76,7.75.34,12.12,5.4,13,4.39,1.12-1.31-4.53-12.18-13.29-12.63C270.22,190.53,263.49,202.67,264.58,204Z"/><path class="cls-17" d="M253.65,104.2a77.16,77.16,0,0,1-18.76,0c-8.53-1-11.29-2.82-20.29-4-3.52-.49-4.57-.41-20.79-.51-22.87-.14-23.08-.29-27.39,0a181.34,181.34,0,0,0-23.33,3"/><path class="cls-18" d="M239.12,126.7a78.28,78.28,0,0,1-18.77,0c-8.52-1-11.28-2.83-20.28-4.06-3.52-.48-4.57-.41-20.8-.51-22.86-.13-23.07-.29-27.38,0-9.21.63-10.95,1.52-23.33,3.05-7.46.91-16.79,1.81-27.65,2.28"/><path class="cls-19" d="M91.36,360.33c-1.65,1.17-10.88-7.06-9.64-9.64.5-1,2.65-1,3.8-.76C90.63,351,92.7,359.37,91.36,360.33Z"/><path class="cls-19" d="M297,302.85c1.7,1.08-2.46,12.73-5.32,12.54-1.16-.07-1.92-2.08-2.13-3.24C288.58,307,295.56,302,297,302.85Z"/><path class="cls-19" d="M87,235.34c-1.38-1.48,5.57-11.71,8.29-10.82,1.1.36,1.34,2.49,1.25,3.67C96.1,233.39,88.08,236.54,87,235.34Z"/><path class="cls-20" d="M235.14,406.23a123,123,0,0,0,1.52,83.68"/><text class="cls-21" transform="translate(44.64 491.38)">#elder</text></g></g></g></svg>