<svg xmlns="http://www.w3.org/2000/svg" viewBox="0 0 304 543"><defs><style>.cls-1{isolation:isolate;}.cls-13,.cls-2,.cls-7,.cls-8{fill:none;}.cls-2,.cls-6,.cls-8{stroke:#4d4d4d;}.cls-13,.cls-2,.cls-3,.cls-4,.cls-5,.cls-6,.cls-8{stroke-miterlimit:10;}.cls-2,.cls-4,.cls-5,.cls-6{stroke-width:4px;}.cls-12,.cls-3{fill:#666;}.cls-3{stroke:#000;}.cls-13,.cls-3,.cls-8{stroke-width:3px;}.cls-10,.cls-4,.cls-5,.cls-6{fill:#4d4d4d;}.cls-4{stroke:gray;}.cls-5{stroke:#999;}.cls-7{stroke:#666;stroke-linecap:round;stroke-linejoin:bevel;stroke-width:5px;}.cls-9{fill:#b3b3b3;mix-blend-mode:darken;}.cls-10{opacity:0.42;}.cls-11{fill:#999;opacity:0.17;}.cls-12{opacity:0.22;}.cls-13{stroke:#333;}.cls-14{font-size:30px;font-family:'Indie Flower', cursive;}</style></defs><g class="cls-1"><g id="圖層_2" data-name="圖層 2"><g id="圖層_1-2" data-name="圖層 1"><path class="cls-2" d="M35.34,91.16c-7,7.35-25.58,26.71-31.95,56.28-.89,4.1-1.93,10.24-1.06,42,1.06,38.92,1.6,58.39,4.89,73.94,5.14,24.26,8.62,17.45,25.31,63.61,6.17,17,24.76,70.71,35.61,69.44a101.29,101.29,0,0,1,10.3-1.16,63.89,63.89,0,0,1,7,0,78.43,78.43,0,0,1,24.85,5.56c10.82,3.82,21.89,1.94,78-17.66,29.38-10.27,44.14-15.49,48.26-19.74,15.67-16.19.34-36.36,17-68.14,2.44-4.63,2.18-15.22,9.57-22.74,5.94-6.06,10.27-4.89,17.38-9.28,15.27-9.43,24.51-32.91,19.45-48.31-2.49-7.6-6.86-8.34-14.24-16.35-13.27-14.42-14.92-29.16-23.08-61.61s-11.6-49.24-16-55.33C212.5,34.25,89.74,34.35,35.34,91.16Z"/><path class="cls-3" d="M191.65,95.62c-6-1.71-37.12-10.47-67.48-7.79-57.25,5.06-77.57,47.8-102.42,35.59-14.18-7-21.91-28-18-42.06C5.84,73.78,18.92,64.65,45,46.7c13.84-9.53,32.77-21.92,32.77-21.92A299.36,299.36,0,0,0,107,18.15c26.65-8,29-18.06,44-16.49l19.76,4.43,17.13,3.83L205,13.75l29,6.49c28.07,8,41.69,52.36,43.42,58,1.28,4.17,3,23.73,6.29,62.85,2.26,26.53-.43.28,1.91,45.78.85,16.55,1.24,20.71-.86,21.75-6.13,3-25.68-24.25-26.56-41.05-.4-7.64-.08-15.31-.08-15.31.16-3.84.59-10.91.59-10.91s-16.77,9.09-19.37,5.9,12.76-15.24,10-25.54c-1.38-5.25-6.75-7.33-27.05-14.83C202.47,99.53,192.55,95.87,191.65,95.62Z"/><path class="cls-4" d="M150.72,154.73c-.87-2.25,21.47-22.47,46.28-18.82,22.89,3.37,37.36,25.51,35.82,27.66-1.43,2-15.88-14.15-40.77-16.53C168.27,144.77,151.46,156.63,150.72,154.73Z"/><path class="cls-5" d="M8.78,155.63C6.14,153.1,7,145.42,10.67,141.42c12.8-14.07,61.83,15.28,61.4,16.36-.28.72-20.54-14.33-43.34-7.58C19.35,153,12,158.71,8.78,155.63Z"/><path class="cls-2" d="M110.16,166.61a400.63,400.63,0,0,0-10.59,45.91c-5.19,30.63-2.5,36.52.56,39.62,8.26,8.4,25.35,2.72,30.26.93"/><ellipse class="cls-6" cx="182.22" cy="199.57" rx="13.56" ry="12.82" transform="translate(-60.13 319.14) rotate(-73.86)"/><ellipse class="cls-6" cx="41.13" cy="204.56" rx="13.56" ry="12.82" transform="translate(-166.8 187.22) rotate(-73.86)"/><path class="cls-7" d="M92.47,319.69a74.2,74.2,0,0,0,13.5-.35A86.77,86.77,0,0,0,121.2,316c6.42-1.77,16-2.88,29.34.38"/><path class="cls-8" d="M262.09,203.11c6.77-3,18.22,1.49,23.39,8.35,10.21,13.57-2.81,38.26-21.06,45.89-1.92.8-10.94,4.58-15.14,1.29-3.9-3.06-.39-9.63,4-28.69C257.72,210.63,256.89,205.4,262.09,203.11Z"/><path class="cls-9" d="M246,307.73c-1.55-.21-2.8,3.45-6.93,11.71a344.5,344.5,0,0,1-19.93,33.25c-20.69,31-64.52,45-78.4,44.7-6.58-.14-13.12,1-19.68,1.43-5.14.36-6.79.55-8.3,1.84-3.83,3.3.73,8.93.92,20.25.17,10.57-3.61,17.77-1.33,18.73,1.38.59,3.73-1.63,4.3-2.15,9-8.27,69.56-48.54,96.83-37,24.66,10.49,25.69,53.77,31.9,52.74,4.6-.76,3.39-23.4,3.44-70.25C248.87,334.05,250.25,308.29,246,307.73Z"/><path class="cls-10" d="M228.3,93.47c4.16,3.84,15.91,16,13.52,19.59-2.64,4-21-9.26-50-17.81h0c-17.3-3.88-53.84-12-90,.3-12.57,4.31-26.68,11.64-32.72,14.78-3.32,1.73-11.29,6.76-22.73,10.32a55.1,55.1,0,0,1-11.53,2.51c-8.43.78-20.2-.51-20.69-3C12.25,110.34,174.12,43.47,228.3,93.47Z"/><path class="cls-11" d="M189.77,318.3c-41.34,55.52-128,46.59-127.67,67.45,0,3.64,2.68,8.28,6.2,10.5,6.37,4,12.07-2.15,23.07-1.46,11.52.72,12.16,7.91,23.7,9.44,6,.8,8.68-.76,25.83-6.63,30.52-10.46,28.14-7.65,35.67-11.89,7.94-4.47,19.46-12.69,28.92-20h0a174.17,174.17,0,0,0,20.36-20.28c6.08-7.2,9.85-12.91,15-20.66A66.56,66.56,0,0,0,246,316c2.85-6,2.8-8.57,5.3-16.2,3.73-11.39,6.29-13.15,5.13-15.41-2.33-4.55-15.25-2.62-25.31,1C207.35,293.77,193.22,313.67,189.77,318.3Z"/><path class="cls-12" d="M86.09,254.53c-16.4-15.25,21.92-89,24.25-88.12.49.19-1.14,3.56-6.9,29.92-8.58,39.27-3.86,25.38-5.77,31.82-1.69,5.7-3,10.27-1.22,15.46,2.44,7.28,9,9.55,8.26,11.78C103.74,258.16,91.7,259.74,86.09,254.53Z"/><path class="cls-13" d="M100,474.5a103.75,103.75,0,0,0,12.08-34.3,102.22,102.22,0,0,0-1.34-39.38"/><text class="cls-14" transform="translate(128.46 492.82)">#youngster</text></g></g></g></svg>