<svg xmlns="http://www.w3.org/2000/svg" viewBox="0 0 1122.21 236.5"><defs><style>.cls-1{fill:#fff8a4;}.cls-2,.cls-3{fill:#fff53e;}.cls-2{opacity:0.6;}.cls-3{opacity:0.25;}</style></defs><g id="圖層_2" data-name="圖層 2"><g id="圖層_4" data-name="圖層 4"><path class="cls-1" d="M63.94,55.83l-1.14,145,1007.58,7.93,1.14-145Zm64.28,15-28.06-.22c-2.57,0-4.66-1-4.65-2.27s2.12-2.21,4.69-2.19l28.06.22c2.56,0,4.65,1,4.64,2.27S130.79,70.86,128.22,70.84Zm58.68.46-28.06-.22c-2.57,0-4.66-1-4.65-2.27s2.12-2.21,4.68-2.19l28.06.22c2.57,0,4.66,1,4.65,2.27S189.46,71.32,186.9,71.3Zm62.6.49-28.06-.22c-2.56,0-4.65-1-4.64-2.26s2.11-2.21,4.68-2.19l28.06.22c2.56,0,4.65,1,4.64,2.26S252.07,71.81,249.5,71.79Zm58.68.47L280.12,72c-2.57,0-4.66-1-4.65-2.26s2.12-2.21,4.69-2.19l28.06.22c2.56,0,4.65,1,4.64,2.26S310.75,72.28,308.18,72.26Zm62.65.49-28.06-.22c-2.56,0-4.66-1-4.65-2.27s2.12-2.21,4.69-2.19l28.06.22c2.56,0,4.65,1,4.64,2.27S373.4,72.77,370.83,72.75Zm58.68.46L401.45,73c-2.57,0-4.66-1-4.65-2.27s2.12-2.21,4.68-2.19l28.06.22c2.57,0,4.66,1,4.65,2.27S432.07,73.23,429.51,73.21Zm62.6.49-28.06-.22c-2.56,0-4.65-1-4.64-2.26S461.52,69,464.09,69l28.06.22c2.56,0,4.65,1,4.64,2.26S494.68,73.72,492.11,73.7Zm58.68.47-28.06-.23c-2.56,0-4.66-1-4.65-2.26s2.12-2.21,4.69-2.19l28.06.22c2.56,0,4.65,1,4.64,2.26S553.36,74.19,550.79,74.17Zm60.47.47-28.06-.22c-2.56,0-4.65-1-4.64-2.26s2.11-2.22,4.68-2.2l28.06.22c2.56,0,4.65,1,4.64,2.27S613.83,74.66,611.26,74.64Zm58.68.46-28.06-.22c-2.56,0-4.66-1-4.65-2.26s2.12-2.21,4.69-2.19l28.06.22c2.56,0,4.65,1,4.64,2.26S672.51,75.12,669.94,75.1Zm62.61.5-28.06-.22c-2.57,0-4.66-1-4.65-2.27s2.12-2.21,4.68-2.19l28.06.22c2.57,0,4.66,1,4.65,2.27S735.11,75.62,732.55,75.6Zm58.67.46-28.06-.22c-2.56,0-4.65-1-4.64-2.27s2.11-2.21,4.68-2.19l28.06.22c2.56,0,4.65,1,4.64,2.27S793.79,76.08,791.22,76.06Zm62.65.49-28.06-.22c-2.56,0-4.65-1-4.64-2.26s2.11-2.22,4.68-2.2l28.06.22c2.57,0,4.66,1,4.65,2.27S856.44,76.57,853.87,76.55Zm58.68.46-28.06-.22c-2.56,0-4.66-1-4.65-2.26s2.12-2.21,4.69-2.19l28.06.22c2.56,0,4.65,1,4.64,2.26S915.12,77,912.55,77Zm62.61.5-28.06-.22c-2.57,0-4.66-1-4.65-2.27s2.12-2.21,4.68-2.19l28.06.22c2.57,0,4.66,1,4.65,2.27S977.72,77.53,975.16,77.51Zm58.67.46-28.06-.22c-2.56,0-4.65-1-4.64-2.27s2.11-2.21,4.68-2.19l28.06.22c2.56,0,4.65,1,4.65,2.27S1036.4,78,1033.83,78Z"/><path class="cls-2" d="M1029.89,153.13l35.38-28.69,3.93-3.18a32.42,32.42,0,0,1,3.07-2.26,14,14,0,0,1,3.42-1.64,8.18,8.18,0,0,1,3.72-.3c1.51.89,5.08,5.56,2.19.7,3.33,5.07,3.1,8.1,1.91,1.2,1.23,6.93.32,7.77,1.17,1-.85,6.8-1.53,7.24,1.12,1-2.65,6.2-3,6.41,1.09,1-4.08,5.38-4.05,5.37,1.41,1.24-5.46,4.13-5,3.88,1.46,1.17-6.45,2.71-5.6,2.22,1.52,1.11-7.12,1.11-2.51-.06,3.54,2.84-5.45-2.41-9.33-2.42-2-1.8-7.38-.63,3.3,3.3,4,4.28s.47,1.23,0,.75-8.85-5.92-2.32-4c-6.53-1.88,1.38,4,1.52,5s0,1.27-.09.75-2.92-4.31.1-4.1c-3-.21-.35,3.69-.35,4.36s.11.56.22-.29-3.31-5.23.26-4.77c-3.57-.46-.15,3.92-.22,4.77s-.1,1,0,.34-.68-3,1-4.22c-1.64,1.18-1,3.67-1.17,4.47-.4,1.61.11.48,2.36-3.32-3.37,5.7-2.56,5.25-.24-1.15-2.32,6.4-2.5,6.51.93.64-3.43,5.87-3.21,5.76.82.19-4,5.57-3.88,5.49.79.35-4.67,5.14-4.39,5,1,.44-5.38,4.55-5.13,4.4.61.25-5.74,4.15-5.1,3.76,1.2.49-6.3,3.27-6.36,3.31-.12-.06-6.24,3.37-5.58,2.93,1,.4-6.56,2.53-6.34,2.38.29.11-6.63,2.27-6.06,1.84.69.26-6.75,1.58-6,1,.84.31-6.86.69-7.11.9-.59-.86-6.52,1.76-5.54.93,1.43,1.16-7-.23-6.86-.31-.11-.83-6.75.52-5.75-.42,1.8,1.42-7.55-1.84-7.46-1.93.17-.73-7.63-1.2-7.06-1.6,1.54,1.29-8.6-2.89-5.56-2.53,1.71.53-7.07-3,1.19-.47,1.73.52.3-.74,1.15.34,1.73.51l1.74.49,5.19,1.41-37.68,25.87c-7.1,4.87-14.22,9.77-20.36,15.54-5.5,5.17-10.15,11-15.61,16.2a176.54,176.54,0,0,1-17.63,14.14l-8.2,6c-1.37,1-2.81,2-4.1,3s-2.75,2-4.1,3-3.16,1.73-4.1,3a10.2,10.2,0,0,0-4.1,3,9.12,9.12,0,0,0-4.1,3,7.73,7.73,0,0,0-4.11,3c-1.71.54-5.12.81-4.1,3-2.5-1.72-4.94-3.67-2-1.07-3.4-2.87-4.28-3.93-2-1.14-2.48-2.91-2.58-3.33-2.11-1.3-.56-2.09-.59-2.13-1.74-1.16,1.1-1,.27-.73-3.54-2,3.51,1.12,3.31,1-.1-.66,3.36,1.6.14.71-3.24-1,3.09,1.58,5.38,2.25,2.13.1,3.21,2.12-.73.87-3.25-.31,2.19,1.1,4.63,1.83,2.11-.44,2.48,2.24-1.29,1-3,.11,1.21.49.94-.34.88-2,0,1.64-.49,2-1.34,1.47.73.28.37-.76.68-2.14-.33,1.35-.21,2.06-.75,1.69.49.21.18-.79.47-2.06-.31,1.31,0,1.71-.22,1.13.3-.24.09-1.52-.28-2.93.35,1.37.5,2.51.25,2.73.1.47-.19,0-.05-1.28-.15,1.31.08,1.44.08.82a6.08,6.08,0,0,0-.69-3.19,5.38,5.38,0,0,1,.63,2.88c-.08.47-.36.28-.5-1,.13,1.28.4,1.27.45.62a5.74,5.74,0,0,0-.91-3.22,5.27,5.27,0,0,1,.87,3.11c-.07.62-.39.61-.61-.67.42,2.53,1.13-1-.59-3.32,1.62,2.08,1.06,4.92,0,2.65,1.08,2.25,1.4-1.82-.19-3.72,1.5,1.63,1.2,4.88-.43,3.06,1.63,1.81,1.89-1.85.48-3.44,1.53,1.66,1.4,5.62.06,3.63,1.33,2,1.38-2.51,0-4.13,1.26,1.22,1,4.31-1,3.14,2,1.17,2.3-2.22,1.13-3.44,1.39,1.44,1.45,5.83,0,4,1.46,1.78,1.45-2.85.12-4.3,1.14,1,.78,4-1.42,3.21,2.2.78,2.7-2.71,1.75-3.84,1.3,1.09,1.31,5-.68,3.9,2,1.14,2-2.84.66-3.93.92,1.11.39,4.49-1.83,3.8,2.22.7,2.6-2.23,1.52-3.25,1.31,1.4,1.36,6-.17,4.3,1.54,1.71,1.52-2.89.2-4.3,1.09,1,.64,3.82-1.62,3.18,2.23.62,2.41-2.94,1.48-3.92.86.77.34,3.23-2.06,3.25a2.65,2.65,0,0,0,2.27-3.8c.8.57-.14,2-2.7,2.71,2.56-.71,3.6-2.23,2.85-2.86.76.82,0,3.21-2.48,3.53,2.49-.32,3.6-2.65,2.89-3.57,1.1.77.53,3.21-2.07,3.34,2.19.44,2.78-1.73,2-3.07,1.15.52.73.37-.55,0,.29,1.2-.72,2.74-2.72,2.83,2.49-.66,3.12-2.55,2.37-3.18.34.42-1.28,1-3.66,2.17,2.38-1.19,3.61-1.83,3.16-2.18.33.41-1,1.1-3.35,2.3,2.31-1.2,3.55-1.9,3.19-2.27.33.32-1,.88-3.33,2.06,2.32-1.19,3.54-1.85,3.19-2.23.18.16-1.32.38-3.77,1.31,2.44-.93,3.92-1.18,3.74-1.36.3.31-1,.81-3.36,1.93,2.35-1.12,3.6-1.64,3.28-2,.11.11-1.42.27-3.91,1,2.49-.75,4-.91,3.84-1,.28.31-1,.8-3.35,1.9,2.35-1.1,3.48-1.57,3.13-1.83,0,.12-1.52.35-3.92,1.11,2.4-.76,3.78-1.05,3.69-1.27.14,0-1.18.11-3.72.57,2.54-.46,3.79-.59,3.62-.68,0,.06-1.45.17-4,.48,2.5-.32,3.57-.44,3.37-.59a36.82,36.82,0,0,0-4-.65c4.85.7,3,.87-1-1.49,3.93,2.31,1.33,2.21-.91-1.52,2.14,3.55-1.78,1.68-1.67-2.51-.65,3.5-1.56.08-2.06-2.16-.75,1.2-1.66-1.13-2.66-1.68a40.76,40.76,0,0,1,3.46-3.51c8.81-8,22.31-14.84,31.58-21.95C1007.49,171.29,1018.69,162.21,1029.89,153.13Z"/><path class="cls-3" d="M75.41,32.19,114.23,6.46l4.32-2.86a34,34,0,0,1,3.34-2A15.58,15.58,0,0,1,125.57.22a9.15,9.15,0,0,1,3.9,0c1.51,1,4.91,5.86,2.23.86,3.12,5.24,2.68,8.21,1.91,1.32.81,6.92-.2,7.69,1.15,1-1.35,6.65-2.09,7,1.1,1.1-3.19,5.94-3.56,6.11,1.07,1.11-4.63,5-4.59,5,1.38,1.32-6,3.68-5.47,3.47,1.44,1.26-6.91,2.21-6,1.78,1.51,1.21-7.5.57-2.62-.24,3.49,3.06-5.51-2.77-9.56-3.07-1.92-1.92-7.66-1.17,3.21,3.5,3.82,4.51s.41,1.25-.06.75-8.81-6.5-2.14-4.16c-6.67-2.34,1.17,4,1.24,5s-.07,1.26-.14.74-2.75-4.47.39-4c-3.14-.43-.63,3.61-.66,4.27s.07.57.24-.27-3.09-5.4.6-4.68c-3.69-.72-.43,3.85-.56,4.69s-.17,1,0,.34-.5-3.06,1.29-4.1c-1.79,1-1.27,3.55-1.53,4.33-.52,1.56.09.48,2.69-3.1-3.9,5.37-3,5-.17-1.17-2.85,6.15-3.05,6.26.93.71-4,5.55-3.75,5.45.83.24-4.58,5.21-4.42,5.14.81.41-5.23,4.73-4.92,4.6,1,.5-5.92,4.1-5.65,4,.62.3-6.27,3.68-5.58,3.34,1.21.57-6.79,2.77-6.86,2.8-.12-.07-6.74,2.87-6,2.48,1,.47-7,2-6.78,1.88.29.12-7.07,1.76-6.45,1.38.7.32-7.15,1.06-6.34.54.85.36-7.19.18-7.46.37-.55-.89-6.91,1.26-5.84.52,1.41,1.25-7.25-.73-7.13-.81-.06-.83-7.07,0-6-.84,1.78,1.53-7.74-2.37-7.65-2.45.23-.71-7.88-1.74-7.25-2.09,1.51,1.39-8.76-3.48-5.62-2.91,1.75.65-7.17-3.48,1.27-.38,1.76.64.37-.71,1.18.42,1.77.63l1.78.61c1.77.6,3.55,1.19,5.32,1.77l-41,22.79c-7.72,4.29-15.48,8.6-22.27,13.85C103.26,65,98,70.41,92,75.15A181.31,181.31,0,0,1,72.65,87.82l-9,5.34c-1.49.9-3.06,1.74-4.48,2.68s-3,1.75-4.48,2.67-3.41,1.47-4.47,2.67a10.49,10.49,0,0,0-4.48,2.68,9.49,9.49,0,0,0-4.48,2.67,8,8,0,0,0-4.48,2.67c-1.82.4-5.4.43-4.48,2.67-2.49-1.89-4.9-4-2.05-1.21-3.35-3.08-4.19-4.19-2-1.27-2.38-3-2.46-3.47-2.11-1.43-.44-2.1-.47-2.15-1.73-1.27,1.21-.92.33-.7-3.56-2.26,3.59,1.37,3.39,1.21-.05-.66,3.39,1.83.09.71-3.31-1.2,3.11,1.78,5.45,2.61,2.21.26,3.2,2.32-.82.8-3.37-.55,2.21,1.25,4.7,2.15,2.23-.28,2.44,2.39-1.41.9-3.12-.11,1.23.57,1-.27,1-1.93-.09,1.62-.64,1.93-1.49,1.36.74.32.44-.73.85-2.07-.43,1.31-.36,2-.89,1.62.5.23.23-.77.63-2-.42,1.28-.14,1.69-.31,1.11.33-.22.2-1.5-.09-2.92.27,1.38.35,2.52.08,2.72.07.46-.21,0,0-1.28-.24,1.29,0,1.43,0,.83a5.79,5.79,0,0,0-.49-3.21A5.23,5.23,0,0,1,15.32,99c-.12.46-.4.25-.46-1,.05,1.29.34,1.29.43.65a5.49,5.49,0,0,0-.73-3.24,5,5,0,0,1,.7,3.13c-.12.61-.45.58-.6-.7.27,2.52,1.24-.9-.39-3.33,1.55,2.17.77,4.94-.22,2.62,1,2.3,1.58-1.69.06-3.69,1.45,1.72.92,4.91-.66,3,1.58,1.91,2.1-1.68.74-3.36,1.47,1.75,1.07,5.65-.18,3.59,1.24,2,1.6-2.38.24-4.08,1.23,1.3.76,4.33-1.28,3,2,1.29,2.55-2,1.42-3.32,1.35,1.52,1.11,5.87-.3,4,1.41,1.86,1.71-2.71.42-4.24,1.11,1.12.54,4-1.7,3.06,2.24.93,3-2.47,2.09-3.65,1.28,1.17,1,5.07-1,3.8,2,1.27,2.24-2.67,1-3.83.88,1.16.1,4.46-2.17,3.61,2.27.85,2.87-2,1.81-3.09,1.26,1.47,1,6-.48,4.23,1.5,1.79,1.79-2.75.51-4.24,1.06,1.09.4,3.82-1.91,3,2.29.77,2.71-2.73,1.81-3.77.84.83.14,3.22-2.36,3.07,2.49.13,3.32-2.64,2.62-3.6.79.62-.28,2-3,2.49,2.72-.52,3.9-1.94,3.16-2.62.74.87-.21,3.17-2.82,3.3,2.61-.13,3.93-2.35,3.26-3.31,1.08.85.32,3.21-2.39,3.15,2.25.59,3-1.51,2.29-2.89,1.16.6.74.42-.58,0,.23,1.2-.93,2.65-3,2.59,2.65-.47,3.43-2.29,2.69-3,.32.44-1.41.88-4,1.88,2.57-1,3.89-1.54,3.45-1.93.31.43-1.16,1-3.65,2,2.49-1,3.83-1.62,3.48-2,.32.34-1.1.8-3.61,1.8,2.5-1,3.81-1.57,3.47-2,.18.17-1.4.27-4,1,2.61-.74,4.17-.88,4-1.07.29.33-1.1.73-3.64,1.67,2.53-.94,3.86-1.36,3.55-1.71.11.11-1.49.16-4.13.72,2.64-.56,4.19-.61,4.06-.72.27.33-1.09.72-3.62,1.64,2.53-.92,3.73-1.3,3.39-1.58,0,.11-1.61.23-4.16.8,2.55-.57,4-.76,3.93-1,.15,0-1.24,0-3.91.28,2.67-.27,4-.31,3.81-.41,0,.07-1.52.06-4.15.19,2.63-.14,3.75-.17,3.55-.34s-1.64-.39-4.15-.93c5,1,3.07,1.08-.9-1.54,3.93,2.56,1.23,2.28-.85-1.57,2,3.66-2,1.53-1.57-2.59-.91,3.4-1.63,0-2-2.29C1.8,81.89,1,79.52,0,78.9a44.81,44.81,0,0,1,3.85-3.21c9.73-7.26,24.26-13,34.4-19.35C50.83,48.48,63.12,40.34,75.41,32.19Z"/></g></g></svg>