<svg xmlns="http://www.w3.org/2000/svg" viewBox="0 0 1080.89 1321.56"><defs><style>.cls-1{fill:#f7f8f8;}.cls-2,.cls-3,.cls-7{fill:none;stroke-miterlimit:10;}.cls-2,.cls-3{stroke:#00913a;}.cls-2{stroke-width:2px;}.cls-3{stroke-width:3px;}.cls-4,.cls-5{fill:#231815;}.cls-5{writing-mode:tb;text-orientation:upright;glyph-orientation-vertical:0deg;font-size:38px;font-family:DFHsiu-W3-WINP-BF, DFPHsiuW3-B5;}.cls-6{fill:#e60012;}.cls-7{stroke:#e60012;stroke-linecap:round;stroke-width:8px;}</style></defs><g id="圖層_2" data-name="圖層 2"><g id="圖層_1-2" data-name="圖層 1"><rect class="cls-1" x="88.83" y="64" width="903.23" height="1193.55" transform="translate(111.5 -77.27) rotate(9.11)"/><rect class="cls-2" x="614.33" y="143.88" width="66.13" height="66.13" transform="translate(36.2 -100.32) rotate(9.11)"/><rect class="cls-2" x="593.38" y="274.47" width="66.13" height="66.13" transform="translate(56.63 -95.35) rotate(9.11)"/><rect class="cls-2" x="603.86" y="209.18" width="66.13" height="66.13" transform="translate(46.41 -97.83) rotate(9.11)"/><rect class="cls-2" x="582.91" y="339.76" width="66.13" height="66.13" transform="matrix(0.99, 0.16, -0.16, 0.99, 66.84, -92.87)"/><rect class="cls-2" x="561.96" y="470.35" width="66.13" height="66.13" transform="translate(87.26 -87.9) rotate(9.11)"/><rect class="cls-2" x="572.43" y="405.06" width="66.13" height="66.13" transform="translate(77.05 -90.38) rotate(9.11)"/><rect class="cls-2" x="551.48" y="535.65" width="66.13" height="66.13" transform="translate(97.47 -85.42) rotate(9.11)"/><rect class="cls-2" x="530.53" y="666.23" width="66.13" height="66.13" transform="matrix(0.99, 0.16, -0.16, 0.99, 117.89, -80.45)"/><rect class="cls-2" x="541.01" y="600.94" width="66.13" height="66.13" transform="translate(107.68 -82.93) rotate(9.11)"/><rect class="cls-2" x="520.06" y="731.53" width="66.13" height="66.13" transform="translate(128.1 -77.96) rotate(9.11)"/><rect class="cls-2" x="499.1" y="862.12" width="66.13" height="66.13" transform="translate(148.52 -73) rotate(9.11)"/><rect class="cls-2" x="509.58" y="796.82" width="66.13" height="66.13" transform="matrix(0.99, 0.16, -0.16, 0.99, 138.31, -75.48)"/><rect class="cls-2" x="679.63" y="154.36" width="66.13" height="66.13" transform="translate(38.69 -110.53) rotate(9.11)"/><rect class="cls-2" x="658.68" y="284.95" width="66.13" height="66.13" transform="translate(59.11 -105.56) rotate(9.11)"/><rect class="cls-2" x="669.15" y="219.65" width="66.13" height="66.13" transform="translate(48.9 -108.05) rotate(9.11)"/><rect class="cls-2" x="648.2" y="350.24" width="66.13" height="66.13" transform="translate(69.32 -103.08) rotate(9.11)"/><rect class="cls-2" x="627.25" y="480.83" width="66.13" height="66.13" transform="translate(89.74 -98.11) rotate(9.11)"/><rect class="cls-2" x="637.73" y="415.53" width="66.13" height="66.13" transform="translate(79.53 -100.59) rotate(9.11)"/><rect class="cls-2" x="616.78" y="546.12" width="66.13" height="66.13" transform="translate(99.95 -95.63) rotate(9.11)"/><rect class="cls-2" x="595.82" y="676.71" width="66.13" height="66.13" transform="matrix(0.99, 0.16, -0.16, 0.99, 120.37, -90.66)"/><rect class="cls-2" x="606.3" y="611.42" width="66.13" height="66.13" transform="translate(110.16 -93.14) rotate(9.11)"/><rect class="cls-2" x="585.35" y="742" width="66.13" height="66.13" transform="translate(130.58 -88.18) rotate(9.11)"/><rect class="cls-2" x="564.4" y="872.59" width="66.13" height="66.13" transform="translate(151.01 -83.21) rotate(9.11)"/><rect class="cls-2" x="574.87" y="807.3" width="66.13" height="66.13" transform="translate(140.8 -85.69) rotate(9.11)"/><rect class="cls-2" x="744.92" y="164.83" width="66.13" height="66.13" transform="matrix(0.99, 0.16, -0.16, 0.99, 41.17, -120.74)"/><rect class="cls-2" x="723.97" y="295.42" width="66.13" height="66.13" transform="matrix(0.99, 0.16, -0.16, 0.99, 61.59, -115.77)"/><rect class="cls-2" x="734.45" y="230.13" width="66.13" height="66.13" transform="translate(51.38 -118.26) rotate(9.11)"/><rect class="cls-2" x="713.5" y="360.71" width="66.13" height="66.13" transform="translate(71.8 -113.29) rotate(9.11)"/><rect class="cls-2" x="692.54" y="491.3" width="66.13" height="66.13" transform="matrix(0.99, 0.16, -0.16, 0.99, 92.23, -108.32)"/><rect class="cls-2" x="703.02" y="426.01" width="66.13" height="66.13" transform="translate(82.01 -110.8) rotate(9.11)"/><rect class="cls-2" x="682.07" y="556.6" width="66.13" height="66.13" transform="translate(102.44 -105.84) rotate(9.11)"/><rect class="cls-2" x="661.12" y="687.18" width="66.13" height="66.13" transform="translate(122.86 -100.87) rotate(9.11)"/><rect class="cls-2" x="671.59" y="621.89" width="66.13" height="66.13" transform="translate(112.65 -103.35) rotate(9.11)"/><rect class="cls-2" x="650.64" y="752.48" width="66.13" height="66.13" transform="matrix(0.99, 0.16, -0.16, 0.99, 133.07, -98.39)"/><rect class="cls-2" x="629.69" y="883.07" width="66.13" height="66.13" transform="translate(153.49 -93.42) rotate(9.11)"/><rect class="cls-2" x="640.17" y="817.77" width="66.13" height="66.13" transform="translate(143.28 -95.9) rotate(9.11)"/><rect class="cls-2" x="810.22" y="175.31" width="66.13" height="66.13" transform="translate(43.65 -130.95) rotate(9.11)"/><rect class="cls-2" x="789.26" y="305.9" width="66.13" height="66.13" transform="translate(64.08 -125.98) rotate(9.11)"/><rect class="cls-2" x="799.74" y="240.6" width="66.13" height="66.13" transform="translate(53.87 -128.47) rotate(9.11)"/><rect class="cls-2" x="778.79" y="371.19" width="66.13" height="66.13" transform="matrix(0.99, 0.16, -0.16, 0.99, 74.29, -123.5)"/><rect class="cls-2" x="757.84" y="501.78" width="66.13" height="66.13" transform="translate(94.71 -118.53) rotate(9.11)"/><rect class="cls-2" x="768.31" y="436.48" width="66.13" height="66.13" transform="translate(84.5 -121.02) rotate(9.11)"/><rect class="cls-2" x="747.36" y="567.07" width="66.13" height="66.13" transform="matrix(0.99, 0.16, -0.16, 0.99, 104.92, -116.05)"/><rect class="cls-2" x="726.41" y="697.66" width="66.13" height="66.13" transform="matrix(0.99, 0.16, -0.16, 0.99, 125.34, -111.08)"/><rect class="cls-2" x="736.89" y="632.37" width="66.13" height="66.13" transform="translate(115.13 -113.56) rotate(9.11)"/><rect class="cls-2" x="715.94" y="762.95" width="66.13" height="66.13" transform="translate(135.55 -108.6) rotate(9.11)"/><rect class="cls-2" x="694.99" y="893.54" width="66.13" height="66.13" transform="matrix(0.99, 0.16, -0.16, 0.99, 155.97, -103.63)"/><rect class="cls-2" x="705.46" y="828.25" width="66.13" height="66.13" transform="matrix(0.99, 0.16, -0.16, 0.99, 145.76, -106.11)"/><rect class="cls-2" x="875.51" y="185.78" width="66.13" height="66.13" transform="translate(46.14 -141.16) rotate(9.11)"/><rect class="cls-2" x="854.56" y="316.37" width="66.13" height="66.13" transform="translate(66.56 -136.19) rotate(9.11)"/><rect class="cls-2" x="865.03" y="251.08" width="66.13" height="66.13" transform="translate(56.35 -138.68) rotate(9.11)"/><rect class="cls-2" x="844.08" y="381.67" width="66.13" height="66.13" transform="translate(76.77 -133.71) rotate(9.11)"/><rect class="cls-2" x="823.13" y="512.25" width="66.13" height="66.13" transform="translate(97.19 -128.74) rotate(9.11)"/><rect class="cls-2" x="833.61" y="446.96" width="66.13" height="66.13" transform="translate(86.98 -131.23) rotate(9.11)"/><rect class="cls-2" x="812.66" y="577.55" width="66.13" height="66.13" transform="translate(107.4 -126.26) rotate(9.11)"/><rect class="cls-2" x="791.71" y="708.14" width="66.13" height="66.13" transform="matrix(0.99, 0.16, -0.16, 0.99, 127.83, -121.29)"/><rect class="cls-2" x="802.18" y="642.84" width="66.13" height="66.13" transform="matrix(0.99, 0.16, -0.16, 0.99, 117.61, -123.78)"/><rect class="cls-2" x="781.23" y="773.43" width="66.13" height="66.13" transform="translate(138.04 -118.81) rotate(9.11)"/><rect class="cls-2" x="760.28" y="904.02" width="66.13" height="66.13" transform="translate(158.46 -113.84) rotate(9.11)"/><rect class="cls-2" x="770.76" y="838.72" width="66.13" height="66.13" transform="translate(148.25 -116.32) rotate(9.11)"/><rect class="cls-2" x="940.8" y="196.26" width="66.13" height="66.13" transform="translate(48.62 -151.37) rotate(9.11)"/><rect class="cls-2" x="919.85" y="326.85" width="66.13" height="66.13" transform="translate(69.04 -146.4) rotate(9.11)"/><rect class="cls-2" x="930.33" y="261.55" width="66.13" height="66.13" transform="translate(58.83 -148.89) rotate(9.11)"/><rect class="cls-2" x="909.38" y="392.14" width="66.13" height="66.13" transform="translate(79.25 -143.92) rotate(9.11)"/><rect class="cls-2" x="888.43" y="522.73" width="66.13" height="66.13" transform="translate(99.68 -138.95) rotate(9.11)"/><rect class="cls-2" x="898.9" y="457.43" width="66.13" height="66.13" transform="translate(89.47 -141.44) rotate(9.11)"/><rect class="cls-2" x="877.95" y="588.02" width="66.13" height="66.13" transform="translate(109.89 -136.47) rotate(9.11)"/><rect class="cls-2" x="857" y="718.61" width="66.13" height="66.13" transform="translate(130.31 -131.5) rotate(9.11)"/><rect class="cls-2" x="867.48" y="653.32" width="66.13" height="66.13" transform="translate(120.1 -133.99) rotate(9.11)"/><rect class="cls-2" x="846.53" y="783.9" width="66.13" height="66.13" transform="translate(140.52 -129.02) rotate(9.11)"/><rect class="cls-2" x="825.58" y="914.49" width="66.13" height="66.13" transform="translate(160.94 -124.05) rotate(9.11)"/><rect class="cls-2" x="836.05" y="849.2" width="66.13" height="66.13" transform="translate(150.73 -126.53) rotate(9.11)"/><line class="cls-2" x1="559.58" y1="933.07" x2="294.14" y2="890.48"/><line class="cls-2" x1="515.24" y1="792" x2="290.89" y2="756.01"/><line class="cls-2" x1="619.99" y1="139.06" x2="560.27" y2="129.48"/><line class="cls-2" x1="567.61" y1="465.53" x2="455.44" y2="447.54"/><rect class="cls-2" x="538.56" y="198.7" width="66.13" height="66.13" transform="matrix(0.99, 0.16, -0.16, 0.99, 43.93, -87.62)"/><line class="cls-2" x1="533.74" y1="259.17" x2="428.99" y2="912.12"/><rect class="cls-2" x="475.71" y="590.46" width="66.13" height="66.13" transform="translate(105.2 -72.72) rotate(9.11)"/><rect class="cls-3" x="114.57" y="87.08" width="851.74" height="1147.4" transform="translate(111.5 -77.27) rotate(9.11)"/><line class="cls-2" x1="562.14" y1="196.75" x2="449.96" y2="178.76"/><path class="cls-4" d="M956.64,346.29c.67-.16,1.16,1.06,1.46,3.64l6-.8,1,0c.66.18,1,.46,1,.84l-.06.39c.13.63-1.39,1-4.54,1l-2.9.73c-.24.12,0,1.23.6,3.34l1.71,10.61.11,0q1.62-1.62,6.46-9.08c0-.26.5-.31,1.39-.17l.47.59q-1.15,3.61-8.16,12.27a38.25,38.25,0,0,0,2.82,9.65c.19,0,.46-1.4.81-4.3l.17-2.47.1-.67.51-1.05.65,2.37-.37,6.54-.83,3-1.3.65q-1.8-1.49-4.32-11.66l-.11,0-5.63,4.67-.55.19-.64-.21c-.17-.15.37-.78,1.61-1.91l4.82-5.64a57.93,57.93,0,0,0-3.11-16.35l-14,2.53a38.38,38.38,0,0,0-1.56,9l.23,0,8.34-4.23.56.09,0,.91c.18.29-1.44,1.4-4.85,3.31l-4.83,2.8-1.73,10.07-.61.64-.78-.13c-.25.19-1.25-.8-3-3l-2.68-2.81-.2-.88q1-2.13,7.1-5.63l1.32-9.67-.08-.19-6.37.4-.61-.09-.63-1,.15-.94c0-.48,1.85-.67,5.43-.55l2.55-.33a3.63,3.63,0,0,0,.26-2.34l1-.7,1.1.18c.63.14.7,1,.22,2.54q.29.33,10.54-1.61l2.87-.85-.4-2.84C955.52,346.53,956.05,346.2,956.64,346.29Zm-19.78,22.39-2.81,1.94-.65.86c.09.58.91,1.76,2.44,3.52l.45.07.76-6.18Zm9.07-31.38c-.06.37,1.41.83,4.43,1.39l3.17,1.14.93.94-.78,1c0-.38-2-.77-5.89-1.17l-3.33-.87-.42-.92.16-.94C944.49,337.41,945.06,337.24,945.93,337.3Zm18.76.62.89.14a26.83,26.83,0,0,1,5.29,6.65l-.1.61-.86.09-6.23-5.78-.12-.7A1.22,1.22,0,0,1,964.69,337.92Z"/><path class="cls-4" d="M936.15,405.45l.65.1.49.68q-.3,1.88-8.54,3.48a16.63,16.63,0,0,1-.29,6.4l.11.15c1.09-.48,2.89-.48,5.38,0q4.51.87.73,14.95l-.52,2.37c.19,1.05-.17,2.86-1.06,5.41l-1.32,1.19-1.17-.19-.74-.78a7.43,7.43,0,0,1-5.53-.36l-.9.66-.19,0-.72-1.32,2.73-17.84.81-8.78-.32-1.31-1.28.06c-.72-.2-1-.89-.8-2.06q-.23-1,6-1.56Zm-3.86,24-5.78,2.07-.82.53-.57,3.56,2.36,1.05q1.42.63,3.87-1.31l1-5.75Zm-.89-11a5.08,5.08,0,0,0-3.5,1.1l-1.27,8.71.11.15,5.1-1.51L933,427q.69-1,1-6.29a2,2,0,0,0-.74-1.65c0-.25-.44-.42-1.44-.49Zm20.81-14.94,1.23.2.64,1-1.17,3.13,1,1.16Q958,411,963.77,409q3.48.69-.86,19.87l.34.79q-.59-.11-1.39,5.76l-2.44,13.57q.45.93-1.83,1.89l-1.62-.26c-2.4-.82-4-3-4.89-6.43l.23-.16.65.1,3.6,3.64,1.18.52q1-1.64,1.17-5.66c.39.06.57-.8.55-2.57l4.26-27.37-.37-1c-1.63.75-4.05,1-7.24.76q-1,.24-4.21-1.94-1.21-.72-.54-3.27l1.33-3.31Zm-2.85,21.88.84.14a23.14,23.14,0,0,0,4.9,5.1,1.41,1.41,0,0,1-1.08,1.36l-1.23-.2q-2.65-.83-4.68-4.81v-.86Z"/><path class="cls-4" d="M937,461.07l.69.11c.69.68.92,1.16.68,1.45l-.43,2.26,8.16-1.65.86.77-.06.41q.21.88-5.18,2l-4.61,1-1.9,2.66-1.84,1.32-.55-.08-.32-.62,1.2-2.2-.1-.3-5.61.72,0,4.73-.88.63-.55-.09c-.38,0-.77-1.23-1.15-3.78l-.33-1-6.38.25-.69-.11a2,2,0,0,1-.71-2.16c-.08-.72,1.7-.93,5.31-.63l1.63,0,0-2a2.51,2.51,0,0,1,1.85-.55,3.35,3.35,0,0,1,1.26,2.25l7.47-.85c.23,0,.41-.68.56-2.16l.2-1.24C935.67,461.69,936.13,461.31,937,461.07Zm8.74,29,.62.1.91.92-.16,1q-.55,2.58-8.74,7.9l-.68-.11-.6-.66c-.28-.33.77-1.33,3.16-3l2.94-3,.07-.41a7.75,7.75,0,0,0-3.14.27l-19.23,3a1.22,1.22,0,0,1-1.51.19l-.53-.65-.27,0-3.22,7.31-1.08,1-.41-.06-.48-1q-.39-.21,2.71-7.67,1.25-2.06,1.26-6.5c-.1-.3.45-.47,1.63-.51q1.35-.08.21,5.25l0,.13q2.52-.78,20.12-2.83Zm-8.78-16.91,4,.79.64.38,0-.14c.72.5.82,1.8.29,3.93.14.3-1.26,2.1-4.18,5.39q.48,1.83-10.21,3L922,487.78a2.08,2.08,0,0,1-1-1.51l.11-.69,1.13-.87q1.77-4.44-2.89-12.31a2.48,2.48,0,0,1,2.38-.81,9,9,0,0,1,2.26,4l.11.16Q926.59,473.86,936.92,473.19Zm-10.22,4.42L925,478.67a15.39,15.39,0,0,1-.26,5.11l.12.16,2.89-.46.18-.25a4.34,4.34,0,0,1-.24-2.86l-.63-2.7Zm3.59,17.56.69.11q2,1.39-1.22,7.63L929,504l5.18-1.07.55.09a2.41,2.41,0,0,1,2,2.78q-1.82,9.49-10.09,17.62l-1.63.94-.55-.09-.46-.64q6.4-6.09,9.93-17.08l.11-.69-.5-.43q-2-.18-7,2.46c.72-.4,1.7,1.15,2.93,4.63l.3,2.52-1,.9c-.64.17-1.35-1-2.13-3.45a4.44,4.44,0,0,1-1.67-3.22l.56-.83L924,507.9l-.18-1.51q2-.79,5.07-7c.32-.23.41-1.39.28-3.48Zm2.42-19-2.71.62a23.57,23.57,0,0,1-.15,6.18,6.8,6.8,0,0,0,3.61-4.92l-.25-1.94Zm5.52-.17-1.93.18c.43,1.71-.3,3.76-2.18,6.13l.23.32c1.94-.95,3.77-2.87,5.5-5.74l.07-.41C940,476.26,939.39,476.1,938.23,476Z"/><path class="cls-4" d="M914.7,530.52c.93.24,1.27,1.58,1,4l5.5-1.08c-.08-.31.52-.45,1.78-.41l.45.32q.5,1.29-5.81,3.06c-2,0-2.86,1-2.48,3.22a51.3,51.3,0,0,0,4.63,14.18l-.48,1-.51,0c-.89-.53-2.31-2.76-4.25-6.71l-.37-.06a48.82,48.82,0,0,1-2.33,11.36q.12.78-2,2.85c-.05.33-.53.42-1.44.28a4.71,4.71,0,0,1-2.26-3.66l.53-1.38.5.08,1.45,2.39.31.05q2.23-3.26,2.79-15l-8.63,8.76-.86.62-.5-.08-.6-.6c-.22-.2.19-.75,1.22-1.64q1.21-.89,8-9.38a14.18,14.18,0,0,0,2.38-4.56l0-.25-9.27.48-.5-.08c-1-.66-1.35-1.16-1.09-1.5l.19-.35a1.87,1.87,0,0,1,1.63-1.07c.72.49,3.65.43,8.77-.18l.6-.16v-3.49C913.25,531,913.79,530.63,914.7,530.52ZM906.12,565l.62.1q1.78,2.31.31,9.94l.32,3.09-.37.32-1-.16q-1.92.07-.84-9l-.29-3.35C904.77,565.66,905.18,565.34,906.12,565Zm35.79-.22.76.38-.11.68-7.94,4,0,.12a6,6,0,0,1,2.18,3.84l-.2,1.23a8.9,8.9,0,0,1-8,4.29l-2.25-.23q-5.41-1-9.16-8.89V568.7l1.47-.85.37.06q.56-.28,2.07,3.7,1.23,3.75,8,5.34,2.48.39,5.4-2.05l.3-1.09c-.21-1.3-1.66-2.3-4.34-3l-1.69.24a1.24,1.24,0,0,1-1.05-1.31l.15-.93c-.1-.48,1.72-1,5.44-1.54q1.53,0,5.61-1.76l2.64-.65Zm-11.73-31.23,1,1.18,4.63,0,2.6.41a3.68,3.68,0,0,1,1.78,3.9l-2.16,13.48q.32.42-.09,5.31l-.08.49c-.1.62-.86,1-2.27,1.1l-1.42-1q-3,2.29-9,1.66c-.45-.08-.62-.46-.51-1.16l.23-1.43q2.63-8.07,3.47-20.87l-.29-1.37C928.24,534.26,928.94,533.72,930.18,533.58Zm5.42,17.6a19,19,0,0,1-7.15,1.52l-1,4,2,.57,4.67-1.41,1.53-.89.08-3.6Zm.53-14-4.13.09-1.43.6c.15.11.22,1.41.2,3.9l-.12,1.56a19.86,19.86,0,0,1,5.05-1.09c1.18.28,1.7.06,1.56-.64l.53-3.27a1.19,1.19,0,0,0-.73-1Zm.27,7.45a22.8,22.8,0,0,0-6.41,2l-.91,2.9q2.7.49,7-1.11l.6-3.77Z"/><path class="cls-4" d="M920.87,616.57l1.2.19.13.8q-1.19,2.15-11.48,2.83l-1.19,7.4a15,15,0,0,0,7.24-1.82l.54-.17c.72.11,1.05.36,1,.74l-.1.63q-1.8,2.7-10,4.37l-2.84,5.13h-.84l-.43-.59,1.78-5c-.4-1-.07-2,1-3l.39-1.62.57-6q-.35.52-17,.25l-.57-.09c-.52-.78-.74-1.31-.65-1.6l.06-.38q0-1.23,5.48-.61a100.44,100.44,0,0,0,16.9-.15l7.54-.86Zm-24.64,6,.88.14.59.81-2.39,7.21q11.18,12.82,30.6,17.18l2.51.53.32.44c.32.7-.69,1.06-3,1.07q-15.84-1.63-31.8-15.74l-4.53,7.19L887.75,643l-1.06-.24q-.47-.33,2.31-4.3a82.35,82.35,0,0,0,5.66-13l.65-2.43Zm10.31-28.71.51.08a1.66,1.66,0,0,1,.77,2.07,24.58,24.58,0,0,1,4.77.63q5.11,1.21,5.66,5.52l-.08,1.35c-.08,1.8-1.71,3.77-4.91,5.9l1.82.81-.06.38q.35,1.88-12.31,2.69l-1.26-1.43-.06-1.24,1-.82c-.36-.15.51-4.76,2.62-13.86l.08-1.35C905,594.21,905.53,594,906.54,593.83Zm7.36,11.56c-.57.34-3,.62-7.33.84l-.51-.09-.38-.45-.13,0-.87,3-.15,1,.32.44.44.07q2,1.15,8.47-3.83l.46-.84ZM911,599l-3.8-.15c-.26,0-.46.68-.61,2.17l-.6,2.5,8.69-.36.74.25.36-.2.17-1.07A5.71,5.71,0,0,0,911,599Z"/><path class="cls-4" d="M902.09,667.8l.64.11q.81.26,1.17,3.81.95.28,8.74-1l.7.11.31.58-.12.71q.18.95-4.37,1.34l-4.8.75q1.46,9,2.15,19.48l.3.58,5.82-9.56,1.46-1.29,1,0,.55.68-7.92,14-.32.35a17.57,17.57,0,0,0,4.75,9.07l.35.32c.51-.18,1.23-1.41,2.17-3.68l.64.11a2.47,2.47,0,0,1,0,2.5L913.73,710l-1.24.72-1.22-.19a14.89,14.89,0,0,1-5.18-7.17l-.62-1.48q-.39-.07-3,3.81.27.3-4.53,5.21l-.75.14-.43-.6,2.58-4.2,5.25-7.6-3.2-23.22-.31-.57A105.65,105.65,0,0,1,888.44,676l-1,.23-.68,7.15-.39,1.59q3.15-.75,9.13,1.47l.49,1.06-.1.65q-.15,3-9.1,7.78H886a1.67,1.67,0,0,1-.56-1.41q1-.22,6.71-4.86l.9-1.44,0-.13-2.51-.4-3.91.1q-1.36-.94-3,4.47-.59,2.81-4.79,9.26l-1.56,1.07c-.87-.31-.29-2.16,1.75-5.53a35,35,0,0,0,3.12-8.34v-1.65l.91-.71q.66-.42,1.42-7.62l-.25-.51v-2.44l-3-.21c-.58-.49-.84-.95-.77-1.38a2.06,2.06,0,0,1,1.5-1.54l2.09.13q1.86,1.17,16.69-.75l-.28-3.21C900.93,668,901.45,667.7,902.09,667.8Zm8-4.92,1,.17a14.85,14.85,0,0,1,5.32,4.28l.83,1.78c-.27,1.15-1.38.79-3.32-1.06a20.11,20.11,0,0,0-5.12-2.67v-1.65C909.09,663.08,909.51,662.79,910.07,662.88Z"/><path class="cls-4" d="M893.69,726.32c.76.37,1.13.8,1.12,1.3l-.42,1.31c-.15.05-.38.63-.7,1.74a24.37,24.37,0,0,1-2.86,5.91l2-.05a5.42,5.42,0,0,1,2.09.23,1.26,1.26,0,0,1,.94,1q.52,1.68-5.51,6.6l3.07.38a2.13,2.13,0,0,1,1.56,1.79q1,.95-5.27,6.74l-2.34,2.7q.12.6,9.55-.7l1.74-.25a13.43,13.43,0,0,1,3.39.34q4.06,1.49-.79,16.52l0,.26L899.56,778l-1,.84L897,778.4l-.41.25c.05-.31-.18-.54-.68-.7a30.9,30.9,0,0,1-8.08-6.49l.06-.41c.24-.35,1.19.19,2.87,1.62l5.85,3.86,1.27.36q1.53-2.57,3.32-12.41l.76-4.75-.32-2.28-.86-.62q-.26-.36-11.9,1.44l-3.38-.07-.52-.08-.73-1q1.29-2.45,8.9-10.24l-.16-.29c-.57-.23-2.55-.22-6,0-.3.09-.53-.22-.69-1l.07-.46c-.14-.24,1.35-1.48,4.47-3.74l2.41-2.48.06-.36-.57-.09-3.53.55q-2.67,4.39-14,17.11c-.13-.09-.57.37-1.33,1.37l-2.25,2.4-1.11,0c-.27-.33,0-.83.87-1.51A205.74,205.74,0,0,0,886,740.05c.25,0,.41-.27.5-.82L880.8,739c-.34.12-.69-.26-1-1.13l.11-.67c-.07-.68,1.06-.8,3.39-.35l2.74.12.3.15,2.05-.25.76-1.42a27.24,27.24,0,0,0,3.09-6.72C892.35,727.29,892.85,726.51,893.69,726.32Zm-19.2,36.75,1.08.17q1.08.87,2.48,7.4l-.56.5c-1,.15-2.31-2.13-3.79-6.82l.11-.67ZM886.27,729l.78.13,2.69,3.4-.1,1.26-.41.25-.52-.09-3.33-3.34.1-1A1.11,1.11,0,0,1,886.27,729Zm-5.09,35.41.41.06a20.31,20.31,0,0,1,3,4.73c.66,1.38.86,2,.59,1.9l.13.55-.47.24-.77-.12c-.31.12-1.32-1.37-3.05-4.47l-1.16-1.72L880,765A1.1,1.1,0,0,1,881.18,764.36Zm6.69-.1.73.12a31.26,31.26,0,0,1,3.83,5.18l.15,1.08c0,.4-.37.49-1.22.28a21.89,21.89,0,0,1-4.5-5.28l.12-.78Zm7.42-.61.72.12q.16.66,3.46,3.57l.33.59c.1.47-.29.71-1.18.71q-1.35.52-4.4-3.94l0-.31C894.16,764.19,894.5,764,895.29,763.65Z"/><path class="cls-4" d="M894.79,813.31l2.71.44q2.5,1.25-1.89,3.41,0-1.1-13.79-.27-9.3.61-27.26-1c-1.58-.37-2.19-.94-1.84-1.73l-.08-.52a2.58,2.58,0,0,1,1.78-1.66q.83.64,7.2.91Q875,815,894.79,813.31Z"/><path class="cls-4" d="M856.08,863.34l.62.1c1.46.84.7,2.37-2.27,4.61q1.3.11,0,6.25l-4.5,16.16-.29.54a2.59,2.59,0,0,1-1.29,1.75l-.53,0-.4-.49a20.9,20.9,0,0,1,1.17-3.68q.4.07,3.21-11.76a27.1,27.1,0,0,0,.88-6.16l-.33-.58c-.61,0-3.2,3-7.79,9l-.41-.07-.48-.66.38-1.05Q847.53,871.77,856.08,863.34Zm20.15,10,.46.07q2,2.66,1.61,7.83-.62,5.78-8.79,12.56l.25.41,3.29.27c.13-.12,2.69.25,7.71,1.13l3.25.52.47.66-.11.72c-.65.74-1.18,1-1.59.65a67.31,67.31,0,0,0-17.12-1.85c0-.22-2-.3-6-.23L857.3,896l-.73-1,.1-.62c0-.86,1.24-1.07,3.86-.65l6,.11q7.37-3.63,9.75-12.56c.32-1.58,0-3.93-1.09-7.06l0-.31A1,1,0,0,1,876.23,873.35Zm-6.09-12.51q.47-.26,4.85,1.41a6.41,6.41,0,0,1,2.65,2.33c.28.19.38.61.27,1.26q-.36,2.26-8.92,5.45v.1l.16.29,11.25-1.53.68.11.26.36-.1.57q.16.66-7.85,1.81l-4.81.92-.12.09c.15.37-.18,2.24-1,5.61q-.59,1-1.71,10.68l0,1.16-.09.52-.55.81h-.64c-.49-.22-.65-2.07-.49-5.53l.42-2.58V884l1.68-8.47-.1-1.39h-5c-.4.08-.67-.34-.81-1.24-.13-.48.9-.88,3.11-1.2A37.45,37.45,0,0,0,876,866.11l.32-.64c-1-1.11-3.32-2-6.88-2.64a1.32,1.32,0,0,1-.17-1.24A1.49,1.49,0,0,1,870.14,860.84Z"/><line class="cls-2" x1="909.33" y1="422.85" x2="804.58" y2="1075.79"/><line class="cls-2" x1="960.76" y1="519.78" x2="856" y2="1172.72"/><line class="cls-2" x1="707.34" y1="429.48" x2="602.59" y2="1082.42"/><rect class="cls-2" x="749.81" y="969.31" width="66.13" height="66.13" transform="matrix(0.99, 0.16, -0.16, 0.99, 168.67, -111.36)"/><text class="cls-5" transform="translate(865.48 915.17) rotate(9.11) scale(1 0.51)">...</text><line class="cls-2" x1="533.74" y1="259.17" x2="421.57" y2="241.18"/><path class="cls-6" d="M757.17,167.83a106.29,106.29,0,0,1,30.05,12.42q12.49,7.86,9.83,20.25Q788.67,232.36,748.2,250l-14,4.58-11.35,38.69-5.73,18.61q-2.72,14.39-20.33,44.54l-3.41,2.68-2.1-.65-.64-5.36q10.73-19.94,19.18-49.2l11-44.84-.56-1.9q-5.43,1.77-29.67.33-2.16.48-4.45-5.1l1.45-4.72q.36-3,13.59-1.27l11.7-.7c.08-1.5,3.86-2,11.34-1.38,1.74.53,2.71-1.36,2.9-5.71l3.7-20.39q-4.62-.84-30.77,4.87l-5.05,18.25-5.67,2.56q-5.15-1,5.3-48.89l4.68-34.72a6,6,0,0,1,5.3-3.24l3.94,1.21q3.35,2.17,3.48,8.25l26.58-2.43Zm-18,7.09-27.38,1.32-2.26-.12-6.51,34.15,32-3.33,2.45-14.46Q741.86,184.94,739.2,174.92Zm20.93,4.73q-6.55-2-7.2.08l-1,6.87-5.13,18.51q-.35,3.91,8,1.9,7.42-.85,12.09,5.45l0,1.74q.36,4.41-13.63,3.26-11.46-.09-9.42,1.69L738.36,241l.37.69q19.62.6,46.76-34.38l1.37-4.46q6.14-8.73-14.67-19.45l-3.14-1Z"/><path class="cls-7" d="M541.74,337.66a500.26,500.26,0,0,1,67-10.29c26.76-2.27,40.75-1.3,73.74-2.56,17.87-.68,43.8-2.12,75.48-5.5"/></g></g></svg>